<svg width="64" height="64" viewBox="0 0 64 64" fill="none" xmlns="http://www.w3.org/2000/svg">
<circle cx="32" cy="32" r="32" fill="#3B48B9"/>
<path d="M35.1653 32.4321H31.9736H28.6224L24.6328 44.0817H31.9736H39.1549L35.1653 32.4321Z" fill="#5A68E7"/>
<path d="M34.3665 15.8358L35.6431 19.8254C35.9623 20.9425 37.0794 21.5808 38.1965 21.5808H42.3456C44.899 21.5808 46.0161 24.7725 43.9415 26.3683L40.5902 28.7621C39.6327 29.4004 39.3136 30.6771 39.6327 31.6346L40.9094 35.6242C41.7073 38.0179 38.9944 40.0925 36.9198 38.4967L33.5686 36.1029C32.6111 35.4646 31.3344 35.4646 30.5365 36.1029L27.1852 38.4967C25.1106 39.9329 22.3977 38.0179 23.1956 35.6242L24.4723 31.6346C24.7915 30.5175 24.4723 29.4004 23.5148 28.7621L20.1636 26.3683C18.089 24.9321 19.2061 21.5808 21.7594 21.5808H25.9086C27.0256 21.5808 27.9831 20.7829 28.4619 19.8254L29.7386 15.8358C30.2173 13.4421 33.5686 13.4421 34.3665 15.8358Z" fill="#FFC400"/>
<path d="M49.5283 35.943C50.5859 35.943 51.4433 35.0857 51.4433 34.028C51.4433 32.9704 50.5859 32.113 49.5283 32.113C48.4707 32.113 47.6133 32.9704 47.6133 34.028C47.6133 35.0857 48.4707 35.943 49.5283 35.943Z" fill="#DAF0FF"/>
<path d="M34.8437 25.8894H33.4074C33.2479 25.2511 33.0883 24.6128 32.7691 24.2936H34.8437C35.3224 24.2936 35.6416 23.9744 35.6416 23.4957C35.6416 23.0169 35.3224 22.6978 34.8437 22.6978H29.0987C28.6199 22.6978 28.3008 23.0169 28.3008 23.4957C28.3008 23.9744 28.6199 24.2936 29.0987 24.2936H30.0562C30.2158 24.2936 31.652 24.2936 31.9712 26.049H29.0987C28.6199 26.049 28.3008 26.3682 28.3008 26.8469C28.3008 27.3257 28.6199 27.6448 29.0987 27.6448H31.8116C31.1733 28.6023 29.5774 28.9215 29.5774 28.9215C29.2583 28.9215 29.0987 29.0811 28.9391 29.4003C28.7795 29.7194 28.9391 30.0386 29.0987 30.1982L33.2479 34.1877C33.4074 34.3473 33.567 34.3473 33.7266 34.3473C33.8862 34.3473 34.0458 34.3473 34.2054 34.1877C34.5245 33.8686 34.5245 33.3898 34.2054 33.0707L31.0137 29.879C31.9712 29.5598 33.0883 28.7619 33.4074 27.4853H35.0033C35.482 27.4853 35.8012 27.1661 35.8012 26.6873C35.482 26.2086 35.1629 25.8894 34.8437 25.8894Z" fill="white"/>
<path d="M21.1204 13.2824L19.8438 13.7612C19.5246 13.7612 19.2054 13.6016 19.2054 13.2824L18.7267 12.0058C18.5671 11.6866 18.7267 11.3674 19.0458 11.2079L20.3225 10.7291C20.6417 10.5695 20.9608 10.7291 21.1204 11.0483L21.5992 12.3249C21.5992 12.8037 21.4396 13.1229 21.1204 13.2824Z" fill="#E5E9FE"/>
<path d="M42.3411 53.8168H21.5953C20.6378 53.8168 19.8398 53.0188 19.8398 52.0613V45.1993C19.8398 44.2418 20.6378 43.4438 21.5953 43.4438H42.3411C43.2986 43.4438 44.0965 44.2418 44.0965 45.1993V52.0613C44.0965 53.1784 43.2986 53.8168 42.3411 53.8168Z" fill="#6CCAFF"/>
<path d="M25.1133 49.9867L26.3899 48.71C26.7091 48.3908 26.8687 48.2313 26.8687 47.9121C26.8687 47.5929 26.7091 47.4333 26.3899 47.4333C26.0708 47.4333 25.9112 47.5929 25.9112 48.0717H25.1133C25.1133 47.4333 25.592 46.9546 26.3899 46.9546C27.1879 46.9546 27.6666 47.4333 27.6666 48.0717C27.6666 48.5504 27.507 48.8696 26.7091 49.5079L26.2304 49.9867H27.8262V50.625H25.1133V49.9867Z" fill="#3B48B9"/>
<path d="M28.7852 48.7097C28.7852 47.5926 29.2639 46.7947 30.2214 46.7947C31.1789 46.7947 31.6577 47.433 31.6577 48.7097C31.6577 49.9863 31.1789 50.6247 30.2214 50.6247C29.4235 50.6247 28.7852 49.9863 28.7852 48.7097ZM31.0193 48.7097C31.0193 47.9118 30.7002 47.433 30.381 47.433C29.9022 47.433 29.5831 47.9121 29.5831 48.71C29.5831 49.5079 30.0618 49.9863 30.381 49.9863C30.7002 49.9863 31.0193 49.6672 31.0193 48.7097Z" fill="#3B48B9"/>
<path d="M34.5255 50.625H33.7276V47.7525L32.9297 48.2313V47.5929L33.8872 46.9546H34.6851V50.625H34.5255Z" fill="#3B48B9"/>
<path d="M38.6817 48.7098C38.6817 49.9864 38.0433 50.6248 37.2454 50.6248C36.4475 50.6248 35.9688 50.146 35.9688 49.5077H36.7667C36.7667 49.8268 37.0858 49.9864 37.2454 49.9864C37.7242 49.9864 38.0433 49.5077 38.0433 48.8693C37.8837 49.1885 37.5646 49.3481 37.0858 49.3481C36.4475 49.3481 35.9688 48.8693 35.9688 48.231C35.9688 47.6514 36.2879 46.8796 37.2454 46.8796C37.8837 46.8796 38.6817 47.2735 38.6817 48.7098ZM36.6071 48.0714C36.6071 48.3906 36.9262 48.7098 37.2454 48.7098C37.5646 48.7098 37.8838 48.3906 37.8838 48.0714C37.8838 47.7523 37.5646 47.4331 37.2454 47.4331C36.9262 47.4331 36.6071 47.7523 36.6071 48.0714Z" fill="#3B48B9"/>
</svg>
