<svg width="64" height="64" viewBox="0 0 64 64" fill="none" xmlns="http://www.w3.org/2000/svg">
<circle cx="32" cy="32" r="32" fill="#3B48B9"/>
<path d="M30.9324 48.5066C36.3963 48.5066 40.8257 44.0772 40.8257 38.6133C40.8257 33.1494 36.3963 28.72 30.9324 28.72C25.4685 28.72 21.0391 33.1494 21.0391 38.6133C21.0391 44.0772 25.4685 48.5066 30.9324 48.5066Z" fill="#FFC400"/>
<path d="M28.6945 27.0409L25.7079 16.7742C25.5212 16.0275 24.9612 15.4675 24.2145 15.4675H20.2945C19.1745 15.4675 18.4279 16.5875 18.6145 17.7075L22.3479 30.5875C24.0279 28.7209 26.2679 27.4142 28.6945 27.0409Z" fill="#FFA69F"/>
<path d="M39.706 30.7742L43.4394 17.7075C43.8127 16.5875 43.066 15.4675 41.946 15.4675H38.026C37.2794 15.4675 36.5327 16.0275 36.346 16.7742L33.3594 27.0409C35.786 27.6009 38.026 28.9075 39.706 30.7742Z" fill="#FFA69F"/>
<path d="M31.1206 34.3203V43.6536C26.6406 41.9736 26.6406 36.9336 26.6406 36.9336L31.1206 34.3203Z" fill="white"/>
<path d="M31.1211 34.3203V43.6536C35.6011 41.9736 35.6011 36.9336 35.6011 36.9336L31.1211 34.3203Z" fill="#F3EDCF"/>
<path d="M17.1208 30.5866C17.6363 30.5866 18.0542 30.1688 18.0542 29.6533C18.0542 29.1378 17.6363 28.72 17.1208 28.72C16.6054 28.72 16.1875 29.1378 16.1875 29.6533C16.1875 30.1688 16.6054 30.5866 17.1208 30.5866Z" fill="#B9C8FC"/>
<path d="M46.0542 39.9208C47.0851 39.9208 47.9208 39.0851 47.9208 38.0542C47.9208 37.0232 47.0851 36.1875 46.0542 36.1875C45.0232 36.1875 44.1875 37.0232 44.1875 38.0542C44.1875 39.0851 45.0232 39.9208 46.0542 39.9208Z" fill="#B9C8FC"/>
</svg>
