<svg width="148" height="148" viewBox="0 0 148 148" fill="none" xmlns="http://www.w3.org/2000/svg">
<circle cx="74" cy="74" r="74" fill="white"/>
<path d="M70.8138 30.2616C74.9743 30.2616 78.3448 33.6097 78.3448 37.7426V103.555C78.3448 107.688 74.9743 111.036 70.8138 111.036H39.847C35.6865 111.088 32.316 107.688 32.316 103.555V37.7426C32.316 33.6097 35.6865 30.2616 39.847 30.2616H70.8138ZM70.8138 30H39.847C35.4759 30 32 33.4528 32 37.7426V103.555C32 107.845 35.4759 111.35 39.847 111.35H70.8138C75.1323 111.35 78.6608 107.897 78.6608 103.607V37.7426C78.6608 33.4528 75.1323 30 70.8138 30Z" fill="#5A68E7"/>
<path d="M74.9719 111.35H43.9525C39.634 111.35 36.1055 107.897 36.1055 103.607V37.7426C36.1581 33.4528 39.634 30 43.9525 30H74.9193C79.2378 30 82.7663 33.4528 82.7663 37.7426V103.555C82.7663 107.845 79.2378 111.35 74.9719 111.35Z" fill="#5A68E7"/>
<path d="M74.3404 88.6974H45.5855C43.7949 88.6974 42.3203 87.2849 42.3203 85.5585V79.49C42.3203 77.7636 43.7949 76.3511 45.5855 76.3511H74.3404C76.131 76.3511 77.6056 77.7636 77.6056 79.49V85.5585C77.6056 87.2849 76.131 88.6974 74.3404 88.6974Z" fill="white"/>
<path d="M50.3281 80.9028H51.6447C52.4347 80.9028 52.856 81.3737 52.856 82.0538C52.856 82.7339 52.4347 83.2047 51.6447 83.2047H50.9601V84.3556H50.3281V80.9028ZM51.4867 82.6815C51.9607 82.6815 52.1714 82.42 52.1714 82.0538C52.1714 81.6876 51.9607 81.426 51.4867 81.426H50.9601V82.6815H51.4867Z" fill="#5A68E7"/>
<path d="M53.1719 83.6227C53.1719 83.0473 53.6459 82.8903 54.1198 82.838C54.5938 82.7857 54.7518 82.7857 54.7518 82.5764C54.7518 82.3149 54.5938 82.1579 54.3305 82.1579C54.0145 82.1579 53.8565 82.3149 53.8039 82.4718L53.2245 82.3672C53.3825 81.8963 53.8039 81.6348 54.3305 81.6348C54.8045 81.6348 55.3838 81.844 55.3838 82.5241V84.2505H54.8045V83.8843H54.7518C54.6465 84.0936 54.3832 84.3028 54.0145 84.3028C53.5405 84.4075 53.1719 84.1459 53.1719 83.6227ZM54.8045 83.4135V83.0996C54.6991 83.1519 54.3832 83.2042 54.2252 83.2565C53.9618 83.3088 53.7512 83.4135 53.7512 83.6227C53.7512 83.832 53.9618 83.9889 54.1725 83.9889C54.5412 83.9366 54.8045 83.7274 54.8045 83.4135Z" fill="#5A68E7"/>
<path d="M55.908 85.2449L56.066 84.774C56.3293 84.8787 56.4873 84.8263 56.6453 84.5125L56.698 84.3555L55.75 81.7397H56.382L56.9613 83.7277H57.014L57.5933 81.7397H58.2252L57.1719 84.6694C57.014 85.0879 56.7506 85.2972 56.2766 85.2972C56.1187 85.2972 55.9607 85.2449 55.908 85.2449Z" fill="#5A68E7"/>
<path d="M60.4406 84.3555H59.8086V81.7921H60.4406V82.2106C60.5459 81.8967 60.8092 81.7397 61.2305 81.7397C61.7572 81.7397 62.1258 82.106 62.1258 82.7337V84.3555H61.4939V82.7861C61.4939 82.4198 61.2832 82.2106 60.9672 82.2106C60.6512 82.2106 60.4406 82.4198 60.4406 82.7861V84.3555Z" fill="#5A68E7"/>
<path d="M62.5977 83.0477C62.5977 82.263 63.0716 81.6875 63.8616 81.6875C64.5989 81.6875 65.1256 82.2107 65.1256 83.0477C65.1256 83.8324 64.6516 84.4079 63.8616 84.4079C63.0716 84.3556 62.5977 83.8847 62.5977 83.0477ZM64.4409 83.0477C64.4409 82.5769 64.2303 82.2107 63.8089 82.2107C63.3876 82.2107 63.177 82.5769 63.177 83.0477C63.177 83.5185 63.3876 83.8847 63.8089 83.8847C64.2829 83.8847 64.4409 83.5185 64.4409 83.0477Z" fill="#5A68E7"/>
<path d="M65.3359 81.792H65.9679L66.4419 83.623H66.4946L66.9685 81.792H67.6005L68.0745 83.5707H68.1272L68.6011 81.792H69.2331L68.4958 84.3554H67.8638L67.3899 82.629H67.3372L66.8632 84.3554H66.2312L65.3359 81.792Z" fill="#5A68E7"/>
<path d="M96.6176 108.787C96.6176 108.787 79.5543 102.823 82.4509 93.3536C82.4509 93.3536 71.3913 81.8442 72.5499 80.4841C73.4979 79.4378 85.9794 88.9068 85.9794 88.9068C85.9794 88.9068 89.4552 86.9188 91.6145 87.442C91.6145 87.442 93.8791 86.1341 96.1963 87.285C96.1963 87.285 98.7242 86.1864 101.305 87.9128C103.885 89.6392 108.414 100.939 108.414 100.939L96.6176 108.787Z" fill="#FFCCC8"/>
<path d="M82.3982 93.3535L87.1906 98.2711C87.1906 98.2711 87.7173 98.742 87.6119 99.1082L82.1875 94.0336C82.2402 94.0336 82.2928 93.6151 82.3982 93.3535Z" fill="#151619"/>
<path d="M85.9805 88.907L88.561 90.6857L86.6124 88.5408C86.6651 88.5408 86.1911 88.6977 85.9805 88.907Z" fill="#151619"/>
<path d="M91.5625 87.442C91.5625 87.442 92.7738 87.8605 93.7744 89.1684C93.7744 89.1684 93.4058 87.6513 92.1945 87.1804C92.1945 87.1804 91.8258 87.2327 91.5625 87.442Z" fill="#151619"/>
<path d="M96.1445 87.2328C96.1445 87.2328 97.3558 87.6513 98.3564 88.9592C98.3564 88.9592 97.9878 87.442 96.7765 86.9712C96.7238 86.9712 96.4079 87.0758 96.1445 87.2328Z" fill="white"/>
<path d="M115.738 105.961C114.632 104.287 110.735 100.207 108.891 99.9974C104.836 99.5266 96.6733 104.392 96.1993 109.362C96.0413 110.984 100.623 115.954 102.888 116.843C106.89 118.412 117.739 108.891 115.738 105.961Z" fill="#3EB753"/>
<path d="M62.3878 34.133H56.542C56.1733 34.133 55.8047 33.9237 55.8047 33.6098C55.8047 33.3482 56.1207 33.0867 56.542 33.0867H62.3878C62.7564 33.0867 63.1251 33.2959 63.1251 33.6098C63.1251 33.9237 62.7564 34.133 62.3878 34.133Z" fill="white"/>
<path d="M59.5946 107.897C58.3306 107.897 57.2773 106.851 57.2773 105.595C57.2773 104.287 58.3306 103.293 59.5946 103.293C60.8585 103.293 61.9118 104.34 61.9118 105.595C61.9118 106.851 60.8585 107.897 59.5946 107.897ZM59.5946 103.555C58.4886 103.555 57.5407 104.444 57.5407 105.595C57.5407 106.746 58.436 107.636 59.5946 107.636C60.7005 107.636 61.6485 106.746 61.6485 105.595C61.6485 104.497 60.7005 103.555 59.5946 103.555Z" fill="white"/>
<path d="M99.8321 64.8419C98.6208 65.4697 96.7249 66.0974 94.513 65.4173C94.039 65.2604 93.6703 65.7312 93.881 66.1498C94.9869 68.19 94.7236 70.178 94.3023 71.4859C94.1443 71.9567 94.6183 72.3229 95.0396 72.1137C96.2509 71.4859 98.1468 70.8581 100.359 71.5382C100.833 71.6952 101.201 71.2243 100.991 70.8058C99.8847 68.7655 100.148 66.7775 100.569 65.4697C100.727 64.9988 100.253 64.5803 99.8321 64.8419Z" fill="#AEE2FF"/>
<path d="M110.104 80.6409C110.841 81.2687 112 81.1641 112.632 80.3794C113.264 79.5946 113.158 78.496 112.368 77.8682C111.631 77.2405 110.472 77.3451 109.84 78.1298C109.261 78.9145 109.366 80.0132 110.104 80.6409Z" fill="#AEE2FF"/>
<path d="M62.2284 67.5623C62.2284 67.5623 62.123 67.5623 58.4365 67.5623C54.75 67.5623 51.8008 63.534 51.8008 58.5641C51.8008 53.5942 54.75 49.5659 58.4365 49.5659C59.0685 49.5659 62.2284 49.5659 62.2284 49.5659V67.5623Z" fill="#FFC400"/>
<path d="M52.0117 60.6565C52.6964 64.5801 55.3296 67.5621 58.4368 67.5621C62.0707 67.5621 62.2286 67.5621 62.2286 67.5621V60.6565H52.0117Z" fill="#FFA800"/>
<path d="M62.2295 67.5623C65.8943 67.5623 68.8652 63.5337 68.8652 58.5641C68.8652 53.5945 65.8943 49.5659 62.2295 49.5659C58.5647 49.5659 55.5938 53.5945 55.5938 58.5641C55.5938 63.5337 58.5647 67.5623 62.2295 67.5623Z" fill="#FFE662"/>
<path d="M52.3281 55.1635H62.2291V53.594H52.9074C52.6968 54.0648 52.4861 54.588 52.3281 55.1635Z" fill="#FFE662"/>
<path d="M54.168 51.6586H62.173V49.5137C62.173 49.5137 59.0658 49.5137 58.3811 49.5137C56.8012 49.5137 55.3266 50.2984 54.168 51.6586Z" fill="#FFE662"/>
<path d="M62.4383 65.7313C65.3469 65.7313 67.7048 62.5225 67.7048 58.5641C67.7048 54.6058 65.3469 51.397 62.4383 51.397C59.5297 51.397 57.1719 54.6058 57.1719 58.5641C57.1719 62.5225 59.5297 65.7313 62.4383 65.7313Z" fill="#FFC400"/>
<path d="M62.4388 51.3447C62.2808 51.3447 62.1228 51.3447 61.9648 51.397C64.6507 51.7109 66.7573 54.7975 66.7573 58.5642C66.7573 62.3309 64.6507 65.3652 61.9648 65.7314C62.1228 65.7314 62.2808 65.7837 62.4388 65.7837C65.3354 65.7837 67.7053 62.5925 67.7053 58.6165C67.7053 54.5883 65.3354 51.3447 62.4388 51.3447Z" fill="#FFA800"/>
<path d="M50.2728 47.7871C50.1148 48.1533 49.7988 48.6765 49.1142 48.9381C49.0088 48.9904 49.0088 49.1997 49.1142 49.252C49.7461 49.5135 50.0621 50.0367 50.2728 50.4029C50.3254 50.5075 50.5361 50.5075 50.5888 50.4029C50.7468 50.0367 51.0627 49.5135 51.7474 49.252C51.8527 49.1997 51.8527 48.9904 51.7474 48.9381C51.1154 48.6765 50.7994 48.1533 50.5888 47.7871C50.4834 47.6302 50.3254 47.6302 50.2728 47.7871Z" fill="#FFE662"/>
<path d="M70.1787 50.4553C70.5859 50.4553 70.916 50.1274 70.916 49.7229C70.916 49.3184 70.5859 48.9905 70.1787 48.9905C69.7715 48.9905 69.4414 49.3184 69.4414 49.7229C69.4414 50.1274 69.7715 50.4553 70.1787 50.4553Z" fill="#FFE662"/>
<path d="M64.8072 55.8435C64.8072 55.7388 64.7545 55.6865 64.6492 55.6865H60.9627C60.8574 55.6865 60.8047 55.7388 60.8047 55.8435V56.3143C60.8047 56.4189 60.91 56.5236 61.0153 56.5236H61.7C62.2793 56.5759 62.8586 56.8375 62.9639 57.7791H60.9627C60.8574 57.7791 60.8047 57.8838 60.8047 57.9361V58.4592C60.8047 58.5639 60.91 58.6162 60.9627 58.6162H62.8586C62.5426 59.2439 61.7 59.5578 61.1733 59.7148C61.0153 59.7671 60.91 59.9764 61.068 60.1333L63.6486 62.906C63.7539 63.0106 63.8592 63.0106 63.9119 62.906L64.2805 62.4875C64.3332 62.3829 64.3332 62.2782 64.2805 62.2259L62.332 60.2379C62.332 60.2379 63.5959 59.8194 63.9119 58.6162H64.6492C64.7545 58.6162 64.8072 58.5115 64.8072 58.4592V57.9361C64.8072 57.8314 64.7019 57.7791 64.6492 57.7791H64.0699C64.0172 57.256 63.8066 56.8375 63.5432 56.5236H64.5965C64.7019 56.5236 64.8072 56.4189 64.8072 56.3143V55.8435Z" fill="#FFE662"/>
</svg>
