<svg width="48" height="48" viewBox="0 0 48 48" fill="none" xmlns="http://www.w3.org/2000/svg">
<rect width="48" height="48" rx="14" fill="#E5E9FE"/>
<path d="M32.2566 38.9473L13.2478 39C12.0442 39 11.0708 38.0345 11.0708 36.8408L11 12.2119C11 11.0182 11.9735 10.0527 13.177 10.0527L32.1858 10C33.3894 10 34.3628 10.9655 34.3628 12.1592L34.4336 36.7881C34.4336 37.9818 33.4602 38.9473 32.2566 38.9473Z" fill="white"/>
<path d="M23.9193 25.9746H16.0963C15.7423 25.9746 15.4414 25.6761 15.4414 25.3251C15.4414 24.974 15.7423 24.6755 16.0963 24.6755H23.9193C24.2733 24.6755 24.5742 24.974 24.5742 25.3251C24.5742 25.6937 24.2733 25.9746 23.9193 25.9746Z" fill="#B9C8FC"/>
<path d="M21.7246 29.5382H16.0963C15.7423 29.5382 15.4414 29.2397 15.4414 28.8887C15.4414 28.5376 15.7423 28.2391 16.0963 28.2391H21.7246C22.0786 28.2391 22.3795 28.5376 22.3795 28.8887C22.3795 29.2573 22.0786 29.5382 21.7246 29.5382Z" fill="#B9C8FC"/>
<path d="M21.7246 33.3123H16.0963C15.7423 33.3123 15.4414 33.0139 15.4414 32.6628C15.4414 32.3117 15.7423 32.0133 16.0963 32.0133H21.7246C22.0786 32.0133 22.3795 32.3117 22.3795 32.6628C22.3795 33.0315 22.0786 33.3123 21.7246 33.3123Z" fill="#B9C8FC"/>
<path d="M17.9737 19.9709C18.5309 19.9709 18.9825 19.523 18.9825 18.9703C18.9825 18.4177 18.5309 17.9697 17.9737 17.9697C17.4165 17.9697 16.9648 18.4177 16.9648 18.9703C16.9648 19.523 17.4165 19.9709 17.9737 19.9709Z" fill="#5A68E7"/>
<path d="M24.3448 19.9709C24.902 19.9709 25.3536 19.523 25.3536 18.9703C25.3536 18.4177 24.902 17.9697 24.3448 17.9697C23.7876 17.9697 23.3359 18.4177 23.3359 18.9703C23.3359 19.523 23.7876 19.9709 24.3448 19.9709Z" fill="#5A68E7"/>
<path d="M26.4161 16.3196C25.5843 16.0387 25.2834 15.986 24.2214 15.8105C24.0091 15.7754 23.8144 15.7052 23.6905 15.5472L22.0091 13.9497C21.7967 13.7391 21.5135 13.6162 21.2303 13.5811C20.0622 13.4582 19.1418 13.4406 17.9914 13.546C17.5312 13.5811 17.1418 13.8444 16.9294 14.2481L15.7082 16.5302C15.6551 16.6882 15.6374 16.8462 15.6551 17.0042L15.7436 18.391C15.7613 18.6368 15.956 18.8123 16.2037 18.8123H16.3099C16.3807 18.8123 16.4338 18.7596 16.4338 18.707C16.5046 18.391 16.8409 17.408 17.956 17.408C18.6993 17.408 19.3011 17.917 19.4781 18.6017C19.5135 18.7245 19.6197 18.8299 19.7613 18.8299H22.54C22.6816 18.8299 22.7878 18.7421 22.8232 18.6017C22.9825 17.917 23.602 17.408 24.3453 17.408C25.1064 17.408 25.7259 17.9521 25.8675 18.6543C25.8852 18.7596 25.9737 18.8299 26.0799 18.8299H26.4338C26.6639 18.8299 26.8763 18.6543 26.9117 18.4261L27.0356 17.3026C27.0887 16.8638 26.8232 16.46 26.4161 16.3196ZM22.2568 15.6349L17.4958 15.5647C17.3542 15.5647 17.248 15.4067 17.3188 15.2839L17.7613 14.3535C17.8144 14.2481 17.9206 14.1779 18.0268 14.1604C19.0533 14.055 19.9914 14.055 21.0356 14.1604C21.1595 14.1779 21.2834 14.2306 21.3719 14.3359L22.363 15.4067C22.4515 15.4945 22.3807 15.6349 22.2568 15.6349Z" fill="#5A68E7"/>
<path d="M31.9236 34.2427L29.3749 34.9273C29.0563 35.0151 28.7377 34.822 28.6492 34.506L27.0917 28.7657C27.0032 28.4497 27.1979 28.1337 27.5165 28.0459L30.0652 27.3613C30.3837 27.2735 30.7023 27.4666 30.7908 27.7826L32.3483 33.5229C32.4191 33.8214 32.2245 34.1549 31.9236 34.2427Z" fill="#6CCAFF"/>
<path d="M31.497 26.94C31.851 26.4309 32.8598 24.9212 33.32 23.4993C33.4616 23.0605 33.9218 22.7796 34.382 22.8674C34.8598 22.9376 35.2138 23.3589 35.1961 23.8504L35.1076 26.0623C35.1076 26.2378 35.2669 26.3607 35.4262 26.3256L36.6297 26.0096C37.7271 25.7112 38.8067 26.5011 38.8421 27.6246L38.9837 31.0653C39.0191 31.9781 38.3466 32.7681 37.4262 32.8734L33.7625 33.2947C33.3554 33.3474 32.966 33.0841 32.8598 32.6979L31.4085 27.3613C31.3908 27.2033 31.4085 27.0629 31.497 26.94Z" fill="#6CCAFF"/>
</svg>
