<svg width="148" height="148" viewBox="0 0 148 148" fill="none" xmlns="http://www.w3.org/2000/svg">
<circle cx="74" cy="74" r="74" fill="white"/>
<path d="M53.8705 73.4575L27.7035 104.119C27.2506 104.678 26.999 105.339 27.0493 106.051L27.2003 109.305C27.3009 111.135 29.0622 112.356 30.7731 111.797L34.7485 110.424C35.2014 110.271 35.6039 109.966 35.9562 109.61L37.6168 107.678C38.12 107.068 38.3213 106.254 38.0193 105.491C37.7174 104.729 37.5664 103.559 38.2709 102.237C39.529 99.7457 45.014 100.712 47.5804 97.7118C49.4926 95.4745 49.6939 92.7287 49.6435 91.4575C49.6435 91.2033 49.9455 91.0507 50.1467 91.2541L51.4048 92.4236C51.5054 92.5253 51.7067 92.5253 51.8073 92.4236L62.8277 79.9151L53.8705 73.4575Z" fill="#B9C8FC"/>
<path d="M81.0934 59.1695L81.8986 79.1017C81.8986 79.1017 91.3589 79.9661 100.417 73.2034H108.116L107.562 61.5085L86.3268 43.9153L71.2305 47.678L81.0934 59.1695Z" fill="#FFA69F"/>
<path d="M57.1419 79.8135L27.8047 111.034C28.5092 111.847 29.6163 112.254 30.7736 111.847L34.749 110.475C35.2019 110.322 35.6045 110.017 35.9567 109.661L37.6173 107.729C38.1205 107.119 38.3218 106.305 38.0199 105.542C37.718 104.78 37.567 103.61 38.2715 102.288C39.5295 99.7966 45.0145 100.763 47.5809 97.7627C49.4931 95.5254 49.6944 92.7796 49.6441 91.5084C49.6441 91.2542 49.946 91.1016 50.1473 91.305L51.4053 92.4745C51.506 92.5762 51.7073 92.5762 51.8079 92.4745L62.8282 79.966L56.1355 75.0847L55.3304 74.7288L57.1419 79.8135Z" fill="#5A68E7"/>
<path d="M55.1764 79.5591C63.9323 87.949 70.8766 94.9151 79.1796 86.0676C87.4826 77.2202 87.1304 63.1863 78.3242 54.7964C69.5683 46.4066 55.7299 46.8134 47.4269 55.6608C39.1239 64.5083 46.4205 71.1693 55.1764 79.5591ZM65.6432 65.4744C64.2342 64.1015 64.1336 61.8134 65.4923 60.3388C66.8509 58.9151 69.1154 58.8134 70.5747 60.1863L73.3927 62.8812C74.8017 64.2541 74.9023 66.5422 73.5436 68.0168C72.185 69.4405 69.9205 69.5422 68.4612 68.1693L65.6432 65.4744Z" fill="#351CB0"/>
<path d="M105.599 49.305L83.4576 38.3728C74.9533 34.2033 62.6246 40.1524 53.6171 46.5084C50.4972 48.6948 49.3398 52.6609 49.3398 52.6609C54.3216 48.8982 61.6685 46.4067 69.1664 49.7117C69.1664 49.7117 58.5989 63.1355 61.0647 64.5592C62.8259 65.5253 70.978 60.4914 78.4255 57.9999C83.9608 56.1185 85.873 57.6439 89.0433 58.9151L89.9994 59.3219C93.6225 60.7965 97.4972 61.5592 101.372 61.5592H107.511L105.599 49.305Z" fill="#FFCCC8"/>
<path d="M102.531 47.7793C102.531 47.7793 104.393 49.3048 104.947 53.576C105.5 57.8471 106.859 75.9488 104.393 79.1014C104.393 79.1014 115.615 78.7963 119.188 77.5251C122.76 76.2539 120.446 46.2539 117.175 45.2878C113.904 44.3217 103.588 44.7285 102.531 47.7793Z" fill="#5A68E7"/>
<path d="M100.82 73.2032C100.82 73.2032 101.927 79.0507 104.393 79.1015C106.859 79.1524 105.601 61.5083 105.601 61.5083L105.047 73.2032H100.82Z" fill="#151619"/>
<path d="M30.6215 77.0677C32.0111 77.0677 33.1376 75.9294 33.1376 74.5253C33.1376 73.1212 32.0111 71.9829 30.6215 71.9829C29.2319 71.9829 28.1055 73.1212 28.1055 74.5253C28.1055 75.9294 29.2319 77.0677 30.6215 77.0677Z" fill="#74CE63"/>
<path d="M87.684 92.4235C88.1287 92.4235 88.4892 92.0593 88.4892 91.6099C88.4892 91.1606 88.1287 90.7964 87.684 90.7964C87.2394 90.7964 86.8789 91.1606 86.8789 91.6099C86.8789 92.0593 87.2394 92.4235 87.684 92.4235Z" fill="#74CE63"/>
<path d="M63.4299 105.949L63.2286 102.441C63.2286 101.983 62.7254 101.729 62.3229 101.932L59.2029 103.559C58.7501 103.763 58.7501 104.424 59.2029 104.627L62.4738 106.508C62.9267 106.763 63.4802 106.458 63.4299 105.949Z" fill="#74CE63"/>
</svg>
