<svg width="148" height="148" viewBox="0 0 148 148" fill="none" xmlns="http://www.w3.org/2000/svg">
<circle cx="74" cy="74" r="74" fill="white"/>
<path d="M34.1092 34H66.6742C70.0394 34 72.7833 36.7292 72.7833 40.0763V108.924C72.7833 112.271 70.0394 115 66.6742 115H34.1092C30.744 115 28 112.271 28 108.924V40.0763C28 36.7292 30.744 34 34.1092 34Z" fill="#B9C8FC"/>
<path d="M32.09 36.0083H58.5459C60.7721 36.0083 62.6359 37.8106 62.6359 40.0763V110.984C62.6359 113.198 60.8239 115.052 58.5459 115.052H32.09C29.8638 115.052 28 113.249 28 110.984V40.0763C28 37.8621 29.812 36.0083 32.09 36.0083Z" fill="#5A68E7"/>
<path d="M113.01 88.0686C113.01 88.4291 112.699 88.944 112.285 89.047L112.751 89.8709C112.751 89.8709 113.114 89.2015 114.097 89.5104H114.511V88.0686H113.01Z" fill="#FF7268"/>
<path d="M117.927 87.9141C117.979 88.635 116.944 89.3559 115.908 89.6134C114.407 89.9738 113.009 89.3044 112.957 87.8111C112.957 86.3692 113.941 85.6483 115.442 86.0603C116.478 86.3177 117.927 87.1931 117.927 87.9141Z" fill="#FF7268"/>
<path d="M69.1069 88.0686C69.1069 88.4291 69.4175 88.944 69.8317 89.047L69.3657 89.8709C69.3657 89.8709 69.0033 89.2015 68.0197 89.5104H67.6055V88.0686H69.1069Z" fill="#FF7268"/>
<path d="M64.1894 87.9141C64.1376 88.635 65.173 89.3559 66.2085 89.6134C67.7099 89.9738 69.1595 89.3044 69.1595 87.8111C69.1595 86.3692 68.1759 85.6483 66.6744 86.0603C65.6908 86.3177 64.2411 87.1931 64.1894 87.9141Z" fill="#FF7268"/>
<path d="M108.922 112.837C108.922 114.022 109.906 115.051 111.148 115.051H113.219C114.41 115.051 115.445 114.073 115.445 112.837V103.311C115.445 102.641 114.876 102.075 114.203 102.075H110.268C109.595 102.075 109.025 102.641 109.025 103.311V112.837H108.922Z" fill="#151619"/>
<path d="M66.7773 112.837C66.7773 114.022 67.761 115.051 69.0036 115.051H71.0745C72.2652 115.051 73.3007 114.073 73.3007 112.837V103.311C73.3007 102.641 72.7312 102.075 72.0582 102.075H68.1234C67.4504 102.075 66.8809 102.641 66.8809 103.311V112.837H66.7773Z" fill="#151619"/>
<path d="M108.247 78.6451C107.574 77.4092 106.072 76.1219 104.312 75.8644C102.5 75.6069 94.5787 75.5554 91.1099 75.5554C87.6411 75.5554 79.7199 75.6069 77.9079 75.8644C76.0958 76.1219 74.6462 77.4092 73.9731 78.6451C73.3001 79.8809 70.4526 87.0386 69.676 88.5834C68.8994 90.1282 67.5016 92.1365 67.2427 93.8873C66.9838 95.6896 67.0874 106.297 67.5016 108.048C67.9675 109.799 69.6242 110.88 70.9186 110.88H111.249C112.544 110.88 114.2 109.799 114.666 108.048C115.132 106.297 115.184 95.6896 114.925 93.8873C114.666 92.085 113.269 90.0767 112.492 88.5834" fill="#FF7268"/>
<path d="M114.926 93.939C114.874 93.733 114.874 93.527 114.822 93.3726C113.838 94.7629 110.887 96.4107 102.293 96.6682H79.8237C71.2812 96.4107 68.2784 94.7629 67.2948 93.3726C67.243 93.5785 67.1912 93.7845 67.1912 93.939C66.9841 95.4323 66.9841 103.259 67.2948 106.709C68.0196 109.13 69.9869 109.439 69.9869 109.439H112.13C112.13 109.439 114.097 109.13 114.822 106.709C115.133 103.259 115.184 95.4323 114.926 93.939Z" fill="#D93A2E"/>
<path d="M100.687 97.6467C100.429 96.8228 99.2377 96.2048 98.0988 96.2048H84.1719C82.9811 96.2048 81.8421 96.8228 81.5833 97.6467C81.3244 98.4706 82.5152 101.766 82.9811 102.384C83.4471 103.002 83.913 103.157 85.3627 103.157H96.8562C98.3058 103.157 98.7718 103.002 99.2378 102.384C99.7037 101.766 100.946 98.4706 100.687 97.6467Z" fill="#FFA69F"/>
<path d="M110.632 87.1933C110.425 86.4209 107.732 80.1386 107.111 78.8513C106.49 77.5639 75.7886 77.3579 75.1673 78.6453C74.5461 79.9326 71.7503 86.3694 71.5432 87.1933C71.3362 87.9657 71.6986 88.3262 72.2681 88.3262H109.907C110.476 88.3262 110.839 87.9657 110.632 87.1933Z" fill="#151619"/>
<path d="M103.121 96.2048C103.121 96.2048 105.088 98.6766 106.072 98.6766H111.767C112.647 98.6766 112.906 98.1616 113.061 97.6467C113.217 97.1317 113.32 94.557 113.061 93.6816C113.113 93.6816 109.127 95.3295 103.121 96.2048Z" fill="white"/>
<path d="M79.0472 96.2048C79.0472 96.2048 77.0799 98.6766 76.0962 98.6766H70.4012C69.5211 98.6766 69.2622 98.1616 69.1069 97.6467C68.9516 97.1317 68.848 94.557 69.1069 93.6816C69.0551 93.6816 73.0416 95.3295 79.0472 96.2048Z" fill="white"/>
<path fill-rule="evenodd" clip-rule="evenodd" d="M104.16 78.5422L103.953 80.1385C103.901 80.396 103.953 80.602 104.108 80.8595C104.212 81.0654 104.419 81.2714 104.626 81.3229L106.076 81.9923L104.471 81.7864C104.212 81.7349 104.005 81.7864 103.746 81.9408C103.539 82.0438 103.384 82.2498 103.28 82.4558L102.607 83.8976L102.814 82.3013C102.866 82.0438 102.814 81.8378 102.659 81.5804C102.555 81.3744 102.348 81.1684 102.141 81.0654L100.691 80.396L102.296 80.602C102.555 80.6535 102.762 80.602 103.021 80.4475C103.228 80.3445 103.384 80.1385 103.487 79.9326L104.16 78.5422Z" fill="white"/>
<path d="M88.4201 65.9779C88.1094 65.9779 87.9023 65.772 87.9023 65.463V61.189C87.9023 60.88 88.1094 60.6741 88.4201 60.6741C88.7307 60.6741 88.9378 60.88 88.9378 61.189V65.463C88.9378 65.772 88.6789 65.9779 88.4201 65.9779Z" fill="#FFE662"/>
<path d="M117.516 77.6668C117.361 77.6668 117.206 77.6153 117.102 77.4608C116.947 77.2548 116.998 76.8944 117.206 76.7399L119.173 75.2466C119.38 75.0921 119.742 75.1436 119.898 75.3496C120.053 75.5555 120.001 75.916 119.794 76.0705L117.827 77.5638C117.723 77.6153 117.62 77.6668 117.516 77.6668Z" fill="#FFE662"/>
<path d="M34.9896 77.1521C35.7144 77.1521 36.2839 77.7185 36.2839 78.4394V84.6187C36.2839 85.3396 35.7144 85.9061 34.9896 85.9061C34.2648 85.9061 33.6953 85.3396 33.6953 84.6187V78.4394C33.6953 77.7185 34.2648 77.1521 34.9896 77.1521Z" fill="white"/>
<path d="M37.8389 82.1983H34.9396C34.629 82.1983 34.4219 81.9924 34.4219 81.6834C34.4219 81.3744 34.629 81.1685 34.9396 81.1685H37.8389C38.1495 81.1685 38.3566 81.3744 38.3566 81.6834C38.3566 81.9924 38.0977 82.1983 37.8389 82.1983Z" fill="white"/>
</svg>
