<svg width="118" height="21" viewBox="0 0 118 21" fill="none" xmlns="http://www.w3.org/2000/svg">
<path d="M9.61052 1.73135C9.98249 1.00731 11.0175 1.00731 11.3895 1.73135L13.429 5.70126C13.5742 5.98388 13.8451 6.18069 14.1588 6.23144L18.5646 6.94439C19.3682 7.07442 19.688 8.05878 19.1143 8.63629L15.969 11.8028C15.7451 12.0282 15.6416 12.3466 15.6903 12.6606L16.3737 17.0712C16.4983 17.8756 15.661 18.4839 14.9345 18.1168L10.951 16.1039C10.6674 15.9606 10.3326 15.9606 10.049 16.1039L6.06553 18.1168C5.33901 18.4839 4.50167 17.8756 4.62631 17.0712L5.30974 12.6606C5.3584 12.3466 5.25493 12.0282 5.03101 11.8028L1.88566 8.63629C1.312 8.05878 1.63184 7.07442 2.43538 6.94439L6.84124 6.23144C7.1549 6.18069 7.42578 5.98388 7.57098 5.70126L9.61052 1.73135Z" fill="#9679F5"/>
<path d="M33.841 1.73135C34.213 1.00731 35.248 1.00731 35.62 1.73135L37.6595 5.70126C37.8047 5.98388 38.0756 6.18069 38.3892 6.23144L42.7951 6.94439C43.5986 7.07442 43.9185 8.05878 43.3448 8.63629L40.1995 11.8028C39.9755 12.0282 39.8721 12.3466 39.9207 12.6606L40.6042 17.0712C40.7288 17.8756 39.8915 18.4839 39.1649 18.1168L35.1815 16.1039C34.8979 15.9606 34.5631 15.9606 34.2795 16.1039L30.296 18.1168C29.5695 18.4839 28.7321 17.8756 28.8568 17.0712L29.5402 12.6606C29.5889 12.3466 29.4854 12.0282 29.2615 11.8028L26.1161 8.63629C25.5425 8.05878 25.8623 7.07442 26.6659 6.94439L31.0717 6.23144C31.3854 6.18069 31.6562 5.98388 31.8014 5.70126L33.841 1.73135Z" fill="#9679F5"/>
<path d="M58.0715 1.73135C58.4434 1.00731 59.4784 1.00731 59.8504 1.73135L61.89 5.70126C62.0352 5.98388 62.306 6.18069 62.6197 6.23144L67.0256 6.94439C67.8291 7.07442 68.1489 8.05878 67.5753 8.63629L64.4299 11.8028C64.206 12.0282 64.1025 12.3466 64.1512 12.6606L64.8346 17.0712C64.9593 17.8756 64.1219 18.4839 63.3954 18.1168L59.4119 16.1039C59.1283 15.9606 58.7935 15.9606 58.5099 16.1039L54.5265 18.1168C53.7999 18.4839 52.9626 17.8756 53.0872 17.0712L53.7707 12.6606C53.8193 12.3466 53.7159 12.0282 53.4919 11.8028L50.3466 8.63629C49.7729 8.05878 50.0928 7.07442 50.8963 6.94439L55.3022 6.23144C55.6158 6.18069 55.8867 5.98388 56.0319 5.70126L58.0715 1.73135Z" fill="#9679F5"/>
<path d="M82.3019 1.73135C82.6739 1.00731 83.7089 1.00731 84.0809 1.73135L86.1204 5.70126C86.2656 5.98388 86.5365 6.18069 86.8502 6.23144L91.256 6.94439C92.0596 7.07442 92.3794 8.05878 91.8058 8.63629L88.6604 11.8028C88.4365 12.0282 88.333 12.3466 88.3817 12.6606L89.0651 17.0712C89.1897 17.8756 88.3524 18.4839 87.6259 18.1168L83.6424 16.1039C83.3588 15.9606 83.024 15.9606 82.7404 16.1039L78.7569 18.1168C78.0304 18.4839 77.1931 17.8756 77.3177 17.0712L78.0011 12.6606C78.0498 12.3466 77.9463 12.0282 77.7224 11.8028L74.5771 8.63629C74.0034 8.05878 74.3232 7.07442 75.1268 6.94439L79.5326 6.23144C79.8463 6.18069 80.1172 5.98388 80.2624 5.70126L82.3019 1.73135Z" fill="#9679F5"/>
<path d="M106.532 1.73135C106.904 1.00731 107.939 1.00731 108.311 1.73135L110.351 5.70126C110.496 5.98388 110.767 6.18069 111.081 6.23144L115.486 6.94439C116.29 7.07442 116.61 8.05878 116.036 8.63629L112.891 11.8028C112.667 12.0282 112.563 12.3466 112.612 12.6606L113.296 17.0712C113.42 17.8756 112.583 18.4839 111.856 18.1168L107.873 16.1039C107.589 15.9606 107.254 15.9606 106.971 16.1039L102.987 18.1168C102.261 18.4839 101.424 17.8756 101.548 17.0712L102.232 12.6606C102.28 12.3466 102.177 12.0282 101.953 11.8028L98.8075 8.63629C98.2339 8.05878 98.5537 7.07442 99.3573 6.94439L103.763 6.23144C104.077 6.18069 104.348 5.98388 104.493 5.70126L106.532 1.73135Z" fill="#9679F5"/>
</svg>
