<svg width="48" height="48" viewBox="0 0 48 48" fill="none" xmlns="http://www.w3.org/2000/svg">
<rect width="48" height="48" rx="14" fill="#E5E9FE"/>
<path d="M15.5 26C10.2581 26 6 21.7419 6 16.5C6 11.2581 10.2581 7 15.5 7C20.7419 7 25 11.2581 25 16.5C25 21.7419 20.7419 26 15.5 26Z" fill="white"/>
<path d="M31 41C26.0392 41 22 36.9744 22 32C22 27.0392 26.0256 23 31 23C35.9608 23 40 27.0256 40 32C40 36.9744 35.9744 41 31 41Z" fill="white"/>
<path d="M36.3444 8.11639L37.0832 10.4026C37.1826 10.7047 37.4434 10.8866 37.761 10.9034L40.1648 10.8978C40.8555 10.9042 41.1293 11.7742 40.573 12.1836L38.6316 13.5859C38.3786 13.7576 38.2844 14.0855 38.3645 14.3902L39.1033 16.6764C39.31 17.3386 38.5729 17.8706 38.0074 17.4731L36.0642 16.0572C35.8228 15.8727 35.4691 15.8805 35.2354 16.0496L33.294 17.4519C32.7377 17.8613 31.994 17.3101 32.2017 16.6517L32.9411 14.3653C33.0404 14.0761 32.9384 13.7546 32.6776 13.5727L30.7344 12.1568C30.1689 11.7592 30.4644 10.8723 31.1551 10.8786L33.5589 10.8731C33.8739 10.8704 34.1437 10.6768 34.243 10.3876L34.9824 8.10112C35.1927 7.46205 36.1183 7.45674 36.3444 8.11639Z" fill="white"/>
<path d="M32.828 32.4848H31.6523V37H29.8602V32.4848H29V30.9037H29.8602V29.8851C29.8602 29.1554 30.19 28 31.6667 28H33V29.5355H32.0394C31.8817 29.5355 31.6523 29.6115 31.6523 29.9611V30.8885H33L32.828 32.4848Z" fill="#3B5998"/>
<path d="M13.2614 16.9738L12.9831 17.999L11.9726 18.0136C11.665 17.4571 11.5039 16.8127 11.5039 16.139C11.5039 15.4799 11.665 14.8648 11.9433 14.3229L12.8367 14.484L13.2321 15.3774C13.1442 15.6117 13.1003 15.8753 13.1003 16.139C13.1149 16.4319 13.1735 16.7101 13.2614 16.9738Z" fill="#FBBB00"/>
<path d="M19.3558 15.4067C19.3997 15.6411 19.429 15.89 19.429 16.139C19.429 16.4173 19.3997 16.6956 19.3411 16.9592C19.1507 17.8672 18.6381 18.6581 17.9498 19.2146L16.822 19.1561L16.6609 18.1601C17.1296 17.8819 17.4811 17.4571 17.6715 16.9592H15.5625V15.4067H17.7154H19.3558Z" fill="#518EF8"/>
<path d="M17.9491 19.2292C17.2754 19.7711 16.4113 20.108 15.474 20.108C13.9655 20.108 12.662 19.2585 11.9883 18.0283L13.2771 16.9738C13.614 17.8671 14.4781 18.4969 15.474 18.4969C15.9133 18.4969 16.3088 18.3798 16.6603 18.1747L17.9491 19.2292Z" fill="#28B446"/>
<path d="M17.9911 13.1073L16.7023 14.1617C16.3361 13.9421 15.9114 13.8103 15.4574 13.8103C14.4322 13.8103 13.5534 14.4693 13.2312 15.392L11.957 14.3229C12.6161 13.0487 13.9489 12.1846 15.472 12.1846C16.4386 12.1846 17.3174 12.5361 17.9911 13.1073Z" fill="#F14336"/>
<path d="M10.3166 39.1532L8.05039 39.7588C7.77689 39.837 7.48385 39.6611 7.4057 39.3876L6.01865 34.2692C5.9405 33.9957 6.11633 33.7027 6.38983 33.6245L8.65601 33.0189C8.92951 32.9407 9.22255 33.1166 9.3007 33.3901L10.6878 38.5085C10.7659 38.782 10.5901 39.0751 10.3166 39.1532Z" fill="white"/>
<path d="M9.94457 32.6478C10.2571 32.1985 11.1363 30.8505 11.5661 29.5807C11.7028 29.19 12.0935 28.936 12.5038 29.0141C12.9336 29.0923 13.2462 29.4635 13.2266 29.8932L13.1485 31.8664C13.1485 32.0227 13.2852 32.1399 13.4415 32.1008L14.4965 31.8078C15.4537 31.5538 16.411 32.2571 16.4501 33.2534L16.5673 36.3206C16.6063 37.1411 16.0007 37.8249 15.1998 37.9225L11.9568 38.3133C11.5856 38.3523 11.2535 38.1179 11.1558 37.7663L9.86642 33.019C9.84689 32.8823 9.86642 32.765 9.94457 32.6478Z" fill="white"/>
</svg>
