<svg width="48" height="48" viewBox="0 0 48 48" fill="none" xmlns="http://www.w3.org/2000/svg">
<rect width="48" height="48" rx="14" fill="#E5E9FE"/>
<g clip-path="url(#clip0)">
<path d="M33.2382 37.7797C31.4818 37.2656 29.5968 38.1438 28.8686 39.8146C27.7119 42.4492 24.0705 42.7705 22.464 40.3715C21.4359 38.8507 19.4438 38.3152 17.7945 39.1291C15.2027 40.4143 12.2254 38.3152 12.5467 35.4449C12.7394 33.6243 11.5613 31.9321 9.7835 31.4823C6.9775 30.7968 6.03503 27.284 8.11275 25.2919C9.44078 24.0282 9.61214 21.9719 8.54115 20.4939C6.82756 18.1591 8.36979 14.8605 11.2615 14.6677C13.0821 14.5392 14.5601 13.0826 14.6672 11.262C14.86 8.39169 18.1586 6.84947 20.4934 8.54163C21.9714 9.63404 24.0277 9.44127 25.2915 8.11324C27.2835 6.03551 30.7963 6.97799 31.4818 9.78398C31.9102 11.5618 33.6023 12.7399 35.4445 12.5471C38.3147 12.2258 40.3924 15.2246 39.1287 17.795C38.3147 19.4443 38.8502 21.4364 40.371 22.4645C42.77 24.071 42.4487 27.691 39.8141 28.869C38.1433 29.6187 37.2651 31.4823 37.7792 33.2387C38.5932 36.0233 36.0228 38.5936 33.2382 37.7797Z" fill="#B9C8FC"/>
<path d="M24.1971 38.1658C31.7445 38.1658 37.863 32.0474 37.863 24.5C37.863 16.9525 31.7445 10.8341 24.1971 10.8341C16.6497 10.8341 10.5312 16.9525 10.5312 24.5C10.5312 32.0474 16.6497 38.1658 24.1971 38.1658Z" fill="white"/>
<path d="M31.0328 28.784H26.4704C26.4061 28.784 26.3633 28.7197 26.3633 28.634V19.1879C26.3633 19.1022 26.4061 19.038 26.4704 19.038H27.113C27.1558 19.038 27.1987 19.0594 27.2201 19.1236L31.1399 28.5912C31.1827 28.6769 31.1185 28.784 31.0328 28.784Z" fill="#00CDEC"/>
<path d="M17.3642 28.784H21.9266C21.9909 28.784 22.0337 28.7197 22.0337 28.634V19.1879C22.0337 19.1022 21.9909 19.038 21.9266 19.038H21.284C21.2412 19.038 21.1984 19.0594 21.1769 19.1236L17.2785 28.5912C17.2357 28.6769 17.2785 28.784 17.3642 28.784Z" fill="#00CDEC"/>
<path d="M22.9566 28.784H25.4413C25.5056 28.784 25.5699 28.7197 25.5699 28.6555V19.1665C25.5699 19.1022 25.5056 19.038 25.4413 19.038H22.9566C22.8924 19.038 22.8281 19.1022 22.8281 19.1665V28.6555C22.8281 28.7411 22.8924 28.784 22.9566 28.784Z" fill="#4239F7"/>
<path d="M24.2024 18.0741C25.0541 18.0741 25.7446 17.3836 25.7446 16.5319C25.7446 15.6801 25.0541 14.9896 24.2024 14.9896C23.3506 14.9896 22.6602 15.6801 22.6602 16.5319C22.6602 17.3836 23.3506 18.0741 24.2024 18.0741Z" fill="#EF5252"/>
<path d="M30.949 31.8899H17.4545C17.3474 31.8899 17.2617 31.8042 17.2617 31.6971V29.6836C17.2617 29.5765 17.3474 29.4908 17.4545 29.4908H30.9276C31.0347 29.4908 31.1203 29.5765 31.1203 29.6836V31.6971C31.1418 31.8042 31.0561 31.8899 30.949 31.8899Z" fill="#4239F7"/>
</g>
<defs>
<clipPath id="clip0">
<rect x="7" y="7" width="35" height="35" fill="white"/>
</clipPath>
</defs>
</svg>
