<svg width="64" height="64" viewBox="0 0 64 64" fill="none" xmlns="http://www.w3.org/2000/svg">
<circle cx="32" cy="32" r="32" fill="#3B48B9"/>
<path d="M44.9955 33.8237V43.1687H39.5775V34.45C39.5775 32.2608 38.7953 30.7658 36.8336 30.7658C35.3365 30.7658 34.4472 31.7723 34.0545 32.7469C33.9118 33.0952 33.8751 33.5788 33.8751 34.0673V43.1683H28.4567C28.4567 43.1683 28.5294 28.4017 28.4567 26.8731H33.8755V29.1823C33.8646 29.2005 33.8492 29.2183 33.8395 29.2356H33.8755V29.1823C34.5955 28.0744 35.8796 26.4905 38.7585 26.4905C42.3231 26.4905 44.9955 28.8195 44.9955 33.8237ZM22.7886 19.0183C20.9352 19.0183 19.7227 20.2349 19.7227 21.8334C19.7227 23.3979 20.9001 24.6496 22.7175 24.6496H22.7527C24.6424 24.6496 25.8174 23.3979 25.8174 21.8334C25.7815 20.2349 24.6424 19.0183 22.7886 19.0183ZM20.0447 43.1687H25.461V26.8731H20.0447V43.1687Z" fill="#F4F5F7"/>
</svg>
