<svg width="309" height="186" viewBox="0 0 309 186" fill="none" xmlns="http://www.w3.org/2000/svg">
<path d="M225.583 68.4479C244.474 68.4479 259.788 53.1253 259.788 34.224C259.788 15.3226 244.474 0 225.583 0C206.693 0 191.379 15.3226 191.379 34.224C191.379 53.1253 206.693 68.4479 225.583 68.4479Z" fill="#F4F5F7"/>
<path d="M256.443 186H151.134C151.134 186 105.961 184.512 79.3786 160.704C25.4692 112.53 43.1292 20.9248 119.439 20.8318C181.62 20.8318 175.114 86.7687 222.982 76.8177C318.996 56.9157 338.608 186 256.443 186Z" fill="#F4F5F7"/>
<path d="M213.688 123.69V186H256.443C256.443 170.469 255.142 127.131 255.142 127.131L213.688 123.69Z" fill="#FF7268"/>
<path d="M213.688 123.69C213.688 123.69 241.758 141.174 255.235 132.06L255.142 126.945L213.688 123.69Z" fill="#151619"/>
<path d="M128.731 66.3091C128.731 66.3091 132.542 68.6341 135.981 67.5181C139.42 66.4021 142.58 69.4711 142.58 69.4711C142.58 69.4711 177.9 106.299 183.849 107.043C189.704 107.694 212.291 81.7471 212.291 81.7471L198.627 66.9601C198.627 66.9601 182.083 83.4211 180.782 82.7701C179.48 82.1191 150.202 52.2661 142.952 51.7081C135.702 51.1501 125.664 57.5671 128.731 66.3091Z" fill="#FFCCC8"/>
<path d="M147.229 62.4959C138.864 54.1259 121.39 55.4279 118.323 68.9129C115.906 79.6079 125.015 82.4909 125.015 82.4909L117.114 87.1409C113.582 89.0939 109.028 91.5119 104.567 93.8369C95.1789 98.8589 38.1094 142.383 38.1094 142.383C43.6862 147.684 52.5162 147.684 62.6474 141.453C72.7787 135.222 110.05 106.764 114.512 100.068C116.185 97.4639 118.509 95.4179 120.739 93.8369C120.739 93.8369 134.96 87.8849 142.117 85.1879C149.088 82.4909 155.595 70.9589 147.229 62.4959ZM134.588 79.3289C130.034 79.3289 126.223 75.8879 126.223 71.7029C126.223 67.5179 129.941 64.0769 134.588 64.0769C139.236 64.0769 142.954 67.5179 142.954 71.7029C142.954 75.8879 139.236 79.3289 134.588 79.3289Z" fill="#4F34D3"/>
<path d="M81.7955 109.554C81.7955 109.554 81.7955 122.016 80.1224 128.991C80.1224 128.991 70.8277 136.059 68.9688 137.175L79.0071 111.6L81.7955 109.554Z" fill="#151619"/>
<path d="M85.791 57.0087C86.0699 65.5647 86.9064 122.574 55.3044 156.519C54.9326 156.984 54.282 157.077 53.7243 156.798L1.39504 133.92C0.372624 133.455 0.279677 132.06 1.20915 131.502C10.4109 125.922 42.1988 102.207 31.1381 46.0347C30.9522 45.0117 31.7888 44.1747 32.8112 44.4537L84.7686 55.7997C85.3263 55.7997 85.791 56.3577 85.791 57.0087Z" fill="#3EB753"/>
<path d="M80.5862 106.113L41.2695 86.862C41.2695 86.862 52.9809 79.236 81.7945 100.626L80.5862 106.113Z" fill="#169B4B"/>
<path d="M37.2717 55.2419C37.4576 57.3809 37.8294 62.2169 37.2717 65.6579C37.1788 66.1229 37.4576 66.4949 37.9223 66.5879L77.6108 76.8179C78.0755 76.9109 78.5402 76.6319 78.6332 76.1669C78.912 74.1209 79.6556 68.9129 79.3768 64.2629C79.3768 63.8909 79.0979 63.6119 78.7261 63.5189L38.2941 54.4049C37.7364 54.2189 37.2717 54.6839 37.2717 55.2419Z" fill="#169B4B"/>
<path d="M10.1307 131.13C12.4544 129.735 17.5665 126.294 21.935 119.784C22.1209 119.505 22.4927 119.412 22.7715 119.505L63.7612 133.827C64.133 134.013 64.3189 134.478 64.133 134.85C62.8317 137.361 58.1844 146.01 52.8864 150.009C52.7005 150.195 52.4216 150.195 52.1428 150.102L10.2236 132.432C9.66596 132.246 9.66596 131.409 10.1307 131.13Z" fill="#169B4B"/>
<path d="M40.2452 107.88C40.0593 107.88 39.8735 107.787 39.6876 107.694C39.2228 107.415 39.0369 106.764 39.4087 106.299C43.9631 99.045 44.8926 92.721 44.8926 92.628C44.9855 92.07 45.4503 91.698 46.008 91.698C46.5656 91.791 46.9374 92.256 46.9374 92.814C46.9374 93.093 46.008 99.696 41.1747 107.322C40.9888 107.694 40.617 107.88 40.2452 107.88Z" fill="white"/>
<path d="M47.216 110.392C47.0301 110.392 46.8442 110.299 46.6583 110.206C46.1936 109.834 46.1007 109.183 46.3795 108.718C46.3795 108.625 49.9115 103.417 51.8634 94.0236C51.9563 93.4656 52.514 93.0936 53.0717 93.1866C53.6294 93.2796 54.0012 93.8376 53.9082 94.3956C51.8634 104.254 48.2384 109.648 48.0526 109.834C47.8667 110.299 47.5878 110.392 47.216 110.392Z" fill="white"/>
<path d="M54.4679 111.507C54.1891 111.507 54.0032 111.414 53.8173 111.228C53.4455 110.949 53.3526 110.484 53.5385 110.019C54.6538 107.322 54.6538 103.881 53.6314 101.556C52.9808 100.254 52.0513 99.417 50.843 98.952C46.9392 97.743 43.872 102.672 43.779 102.672C43.5002 103.137 42.8495 103.323 42.2919 103.044C41.8271 102.765 41.6412 102.114 41.9201 101.556C42.106 101.277 45.9168 95.232 51.3077 96.906C53.0737 97.464 54.5609 98.766 55.3974 100.626C56.5128 102.951 56.5128 105.741 56.048 108.159L67.7594 101.463C68.2241 101.184 68.8747 101.37 69.1536 101.835C69.4324 102.3 69.2465 102.951 68.7818 103.23L54.8397 111.135C54.7468 111.414 54.5609 111.507 54.4679 111.507Z" fill="white"/>
<path d="M141.93 127.41C134.773 124.62 120.552 118.761 120.552 118.761C118.321 117.18 115.997 115.134 114.324 112.53C109.956 105.834 72.5912 77.2829 62.4599 71.1449C52.3287 64.9139 43.4987 64.9139 37.9219 70.2149C37.9219 70.2149 94.9914 113.832 104.379 118.761C108.841 121.179 113.395 123.597 116.927 125.457L124.827 130.107C124.827 130.107 115.719 132.99 118.135 143.685C121.203 157.17 138.677 158.472 147.042 150.102C155.593 141.639 149.087 130.107 141.93 127.41ZM142.952 140.895C142.952 145.08 139.234 148.521 134.587 148.521C129.94 148.521 126.222 145.08 126.222 140.895C126.222 136.71 129.94 133.269 134.587 133.269C139.234 133.269 142.952 136.71 142.952 140.895Z" fill="#4F34D3"/>
<path d="M141 58.59L136.353 64.263C136.353 64.263 134.494 69.006 138.677 70.401C142.859 71.796 150.667 62.775 150.667 62.775C150.667 62.775 145.741 52.638 141 58.59Z" fill="#FFC400"/>
<path d="M143.174 55.8132L136.211 64.1709L136.568 64.4686L143.531 56.111L143.174 55.8132Z" fill="white"/>
<path d="M142.953 71.703C142.953 71.703 146.95 73.935 151.132 71.703C151.132 71.703 151.039 74.958 149.924 77.097L154.571 81.747C154.571 81.747 155.873 71.145 151.225 62.031C151.225 62.031 145.648 68.448 142.488 69.471C142.581 69.471 143.046 70.68 142.953 71.703Z" fill="#151619"/>
<path d="M212.292 81.7469C212.85 102.672 213.686 123.783 213.686 123.783C213.686 123.783 251.051 141.732 255.048 127.131C255.048 127.131 253.84 55.2419 239.433 49.1039C232.926 46.3139 220.564 45.2909 198.629 67.0529L212.292 81.7469Z" fill="#5F60FF"/>
<path d="M212.291 81.747C211.733 60.8221 222.515 53.3821 222.515 53.3821C222.515 53.3821 211.454 60.0781 208.852 85.56L212.291 81.747Z" fill="#151619"/>
<path d="M218.241 80.0732C218.241 80.0732 194.911 109.74 188.963 113.46C183.014 117.18 150.762 128.805 150.762 128.805C150.762 128.805 145.185 126.108 142.024 127.41C142.024 127.41 142.303 133.176 138.957 134.385C138.957 134.385 138.121 140.151 142.21 144.243C146.207 148.335 192.123 131.13 196.956 128.619C201.789 126.015 233.299 93.3722 233.299 93.3722L218.241 80.0732Z" fill="#FFCCC8"/>
<path d="M233.949 94.3018L217.219 79.5148L217.591 79.1428L233.856 93.5578L246.59 79.1428L246.962 79.5148L233.949 94.3018Z" fill="white"/>
<path d="M217.591 79.5146L217.219 79.1426L231.997 59.9846L232.369 60.2636L217.591 79.5146Z" fill="white"/>
<path d="M235.434 47.9878L230.508 23.0639C230.508 23.0639 222.236 22.2269 220.934 27.0629C219.633 31.8989 221.306 41.5709 227.627 39.8969C227.627 39.8969 228.556 49.2898 229.393 50.6848C230.043 51.7078 231.995 51.8938 233.854 51.1498C234.969 50.5918 235.713 49.2898 235.434 47.9878Z" fill="#FFCCC8"/>
<path d="M220.842 27.5279C220.842 27.5279 219.076 25.2959 220.377 23.3429C221.585 21.2969 224.652 19.3439 229.021 19.2509C233.389 19.1579 235.434 22.5989 237.2 22.5059C237.2 22.5059 236.271 25.6679 235.062 26.5979C235.062 26.5979 229.207 28.2719 227.162 27.2489C225.117 26.1329 222.608 26.6909 220.842 27.5279Z" fill="#151619"/>
<path d="M227.534 27.2488C227.534 27.2488 228.928 27.4348 229.672 32.5498C229.858 34.0378 228.092 36.7348 226.419 35.3398C224.467 33.7588 221.678 33.6658 220.935 34.5028C220.47 35.0608 220.47 38.3158 220.749 40.3618C221.864 48.1738 226.047 47.3368 227.906 44.8258C229.3 43.0588 231.066 35.8048 231.066 35.8048C230.694 35.6188 229.672 29.5738 231.81 29.7598L233.204 36.7348C233.204 36.7348 234.784 30.6898 235.063 26.3188L227.534 27.2488Z" fill="#151619"/>
<path d="M231.811 29.946C231.811 29.946 233.02 29.76 233.391 30.876C233.67 31.9919 233.299 34.4099 232.09 34.5959C232.09 34.5959 230.696 31.8989 231.811 29.946Z" fill="#FFCCC8"/>
<path d="M228.001 186L220.751 147.312L217.219 145.08L217.498 144.615L221.215 147.033V147.126L228.465 185.907L228.001 186Z" fill="white"/>
<path d="M243.331 139.605L243.098 140.008L251.864 145.088L252.097 144.686L243.331 139.605Z" fill="white"/>
<path d="M152.246 165.726C156.615 166.098 171.765 166.935 180.409 160.704C180.688 160.518 181.06 160.611 181.246 160.797L188.589 170.562C188.961 171.027 188.868 171.771 188.31 172.143C184.871 174.282 172.881 180.885 158.66 178.374C158.474 178.374 158.288 178.188 158.195 178.095L151.596 166.563C151.41 166.191 151.782 165.726 152.246 165.726Z" fill="#3EB753"/>
<path d="M167.489 176.978L161.912 167.4C161.819 167.214 161.633 167.121 161.354 167.121C159.588 167.121 155.313 166.842 153.733 166.656C153.454 166.656 153.268 166.935 153.454 167.121L159.031 177.071C159.124 177.257 159.309 177.35 159.495 177.35C160.611 177.443 164.422 177.908 167.024 177.815C167.489 177.815 167.768 177.35 167.489 176.978Z" fill="#CBF9BB"/>
<path d="M180.222 162.284C179.014 163.121 177.434 163.865 176.505 164.144C176.133 164.237 176.04 164.702 176.226 165.074L181.431 173.816C181.617 174.095 181.896 174.188 182.174 174.095C183.104 173.723 185.242 172.886 186.915 171.677C187.194 171.491 187.286 171.119 187.101 170.84L181.152 162.47C180.966 162.191 180.501 162.098 180.222 162.284Z" fill="#CBF9BB"/>
<path d="M167.49 169.352C167.397 169.352 167.304 169.259 167.211 169.166C167.211 169.073 167.211 168.887 167.397 168.887L172.137 167.585C172.23 167.585 172.416 167.585 172.416 167.771C172.416 167.864 172.416 168.05 172.23 168.05L167.49 169.352Z" fill="white"/>
<path d="M168.419 171.306C168.327 171.306 168.234 171.213 168.141 171.12C168.141 171.027 168.141 170.841 168.327 170.841L172.881 169.353C172.974 169.353 173.16 169.353 173.16 169.539C173.16 169.632 173.16 169.818 172.974 169.818L168.419 171.306C168.512 171.306 168.419 171.306 168.419 171.306Z" fill="white"/>
<path d="M174.924 175.026L169.254 173.259C169.161 173.259 169.068 173.166 169.068 173.073C169.068 172.98 169.161 172.887 169.254 172.794L170.834 172.236C171.299 172.05 171.764 171.678 171.95 171.213C172.136 170.841 172.136 170.376 171.95 170.004C171.485 169.074 170.37 168.609 169.254 168.888L168.232 169.167C168.139 169.167 167.953 169.167 167.953 168.981C167.953 168.888 167.953 168.702 168.139 168.702L169.161 168.423C170.463 168.051 171.857 168.702 172.415 169.818C172.693 170.376 172.693 170.934 172.508 171.399C172.229 171.957 171.764 172.422 171.113 172.701L170.184 173.073L175.11 174.654C175.203 174.654 175.296 174.84 175.296 174.933C175.11 175.026 175.017 175.026 174.924 175.026Z" fill="white"/>
<path d="M222.422 36.4559V35.9909C222.887 35.9909 224.188 35.8049 224.746 35.4329L225.024 35.8049C224.281 36.3629 222.515 36.4559 222.422 36.4559Z" fill="white"/>
<path d="M222.518 34.0378H222.332L222.704 31.0618L222.983 31.1548L222.518 34.0378Z" fill="#151619"/>
<path d="M224.653 31.899C224.858 31.899 225.025 31.7325 225.025 31.527C225.025 31.3216 224.858 31.155 224.653 31.155C224.448 31.155 224.281 31.3216 224.281 31.527C224.281 31.7325 224.448 31.899 224.653 31.899Z" fill="#151619"/>
<path d="M221.493 31.899C221.698 31.899 221.865 31.7325 221.865 31.527C221.865 31.3216 221.698 31.155 221.493 31.155C221.288 31.155 221.121 31.3216 221.121 31.527C221.121 31.7325 221.288 31.899 221.493 31.899Z" fill="#151619"/>
</svg>
