<svg width="90" height="80" viewBox="0 0 90 80" fill="none" xmlns="http://www.w3.org/2000/svg">
<g clip-path="url(#clip0)">
<path d="M18.4115 79.9998C27.8443 79.9998 35.491 72.353 35.491 62.9203C35.491 53.4876 27.8443 45.8408 18.4115 45.8408C8.97878 45.8408 1.33203 53.4876 1.33203 62.9203C1.33203 72.353 8.97878 79.9998 18.4115 79.9998Z" fill="#AEE2FF"/>
<path d="M47.911 18.7061C47.911 18.7061 60.5543 21.072 59.0755 32.3105C57.5968 43.5489 58.7059 45.4713 66.0996 46.8022C73.4933 48.133 70.6097 53.3826 73.2715 59.0757C74.8241 62.4029 84.2881 63.3641 84.8796 69.0573C85.3972 74.7504 85.9147 78.6691 89.168 80.0739H40.9609L47.911 18.7061Z" fill="#F4F5F7"/>
<path d="M18.4092 75.4897C25.351 75.4897 30.9785 69.8622 30.9785 62.9204C30.9785 55.9785 25.351 50.3511 18.4092 50.3511C11.4673 50.3511 5.83984 55.9785 5.83984 62.9204C5.83984 69.8622 11.4673 75.4897 18.4092 75.4897Z" fill="white"/>
<path d="M51.0898 79.9999C51.0898 79.9999 52.5686 56.5618 72.3837 43.6968C72.3837 43.6968 72.4577 56.7837 66.6166 68.096C66.6166 68.096 70.3874 64.9167 80.8865 62.9204C80.8865 62.9204 78.3727 70.2402 74.3061 73.7892C74.3061 73.7892 80.369 73.4195 85.2488 79.9999" fill="#A2EA92"/>
<path d="M30.7579 0.22168C30.2404 0.22168 29.8707 0.591366 29.7968 1.10893C29.4271 5.32334 26.3957 8.87233 22.2552 9.90745L19.2237 10.6468C18.7801 10.7208 18.4844 11.1644 18.4844 11.608V22.4028C18.4844 22.9204 18.928 23.364 19.4456 23.364H28.8356C29.3531 23.364 29.7968 23.8076 29.7968 24.3252V79.0387C29.7968 79.5563 30.2404 79.9999 30.7579 79.9999H48.0592C48.5768 79.9999 49.0204 79.5563 49.0204 79.0387V1.2568C49.0204 0.73924 48.5768 0.295617 48.0592 0.295617H30.7579V0.22168Z" fill="#47AFFA"/>
<path d="M25.7312 57.4492L17.8938 61.7376C17.5981 61.8855 17.3763 62.2551 17.3023 62.5509C17.2284 63.1424 17.5981 63.6599 18.1896 63.8078C18.5593 63.8818 18.929 63.8078 19.1508 63.5121L25.7312 57.4492Z" fill="#5A68E7"/>
<path d="M11.9023 56.4141L17.5216 63.3642C17.7434 63.6599 18.1131 63.8078 18.4827 63.8078C19.0742 63.8078 19.5179 63.2902 19.5179 62.6987C19.5179 62.329 19.37 62.0333 19.0742 61.8115L11.9023 56.4141Z" fill="#5A68E7"/>
<g opacity="0.3">
<path d="M40.296 60.6282C49.7599 53.826 45.3976 31.5709 29.7969 28.9092V79.0386C29.7969 79.5561 30.2405 79.9997 30.7581 79.9997H37.3385C37.3385 79.9997 30.832 67.4304 40.296 60.6282Z" fill="#2871EA"/>
</g>
<path d="M0.221811 64.0297C0.0739372 64.0297 0 63.9557 0 63.8079C0 47.9853 13.3087 44.5103 18.4103 44.5103C18.5582 44.5103 18.6322 44.5842 18.6322 44.7321C18.6322 44.8799 18.5582 44.9539 18.4103 44.9539C13.4566 44.9539 0.51756 48.355 0.51756 63.8079C0.51756 63.8818 0.369686 64.0297 0.221811 64.0297Z" fill="#B9C8FC"/>
<path d="M63.7349 40.6655C62.6997 40.6655 61.8125 39.7783 61.8125 38.7432C61.8125 37.708 62.6997 36.8208 63.7349 36.8208C64.77 36.8208 65.6572 37.708 65.6572 38.7432C65.6572 39.7783 64.77 40.6655 63.7349 40.6655ZM63.7349 37.2644C62.9216 37.2644 62.3301 37.9299 62.3301 38.6692C62.3301 39.4825 62.9955 40.074 63.7349 40.074C64.5482 40.074 65.1397 39.4086 65.1397 38.6692C65.1397 37.9299 64.4742 37.2644 63.7349 37.2644Z" fill="#B9C8FC"/>
<path d="M51.089 47.024C50.9411 47.024 50.8672 46.9501 50.8672 46.8022V0.221811C50.8672 0.0739372 51.0151 0 51.089 0C51.1629 0 51.3108 0.0739372 51.3108 0.221811V46.8022C51.3848 46.9501 51.2369 47.024 51.089 47.024Z" fill="#B9C8FC"/>
<path d="M58.7795 80C59.5962 80 60.2583 79.3379 60.2583 78.5212C60.2583 77.7045 59.5962 77.0425 58.7795 77.0425C57.9628 77.0425 57.3008 77.7045 57.3008 78.5212C57.3008 79.3379 57.9628 80 58.7795 80Z" fill="white"/>
<path d="M68.0959 80C68.9126 80 69.5747 79.3379 69.5747 78.5212C69.5747 77.7045 68.9126 77.0425 68.0959 77.0425C67.2792 77.0425 66.6172 77.7045 66.6172 78.5212C66.6172 79.3379 67.2792 80 68.0959 80Z" fill="white"/>
<path d="M71.1272 74.6027C69.8703 74.1591 69.5006 74.0852 67.874 73.8633C67.5783 73.7894 67.2825 73.7155 67.0607 73.4937L64.6208 71.1277C64.325 70.8319 63.8814 70.6101 63.4378 70.6101C61.7372 70.4622 60.4063 70.3883 58.7058 70.5362C58.0404 70.6101 57.4489 70.9798 57.1531 71.5713L55.3786 74.9724C55.3047 75.1942 55.3047 75.416 55.3047 75.7118L55.4526 77.782C55.4526 78.1517 55.7483 78.4474 56.118 78.4474H56.2659C56.3398 78.4474 56.4137 78.3735 56.4877 78.2996C56.6356 77.8559 57.0792 76.3772 58.7058 76.3772C59.8149 76.3772 60.7021 77.1166 60.9239 78.1517C60.9978 78.3735 61.1457 78.5214 61.3675 78.5214H65.4341C65.6559 78.5214 65.8038 78.3735 65.8777 78.1517C66.0995 77.1166 66.9868 76.3772 68.0958 76.3772C69.2049 76.3772 70.1661 77.1905 70.3139 78.2256C70.3139 78.3735 70.4618 78.4474 70.6097 78.4474H71.1272C71.4969 78.4474 71.7927 78.2256 71.8666 77.8559L72.0884 76.1554C72.1624 75.416 71.7927 74.8245 71.1272 74.6027ZM65.0644 73.5676L58.0404 73.4937C57.8185 73.4937 57.6707 73.2718 57.7446 73.05L58.41 71.7192C58.484 71.5713 58.6319 71.4234 58.7797 71.4234C60.2585 71.2755 61.6633 71.2755 63.216 71.4234C63.4378 71.4234 63.5856 71.4974 63.7335 71.6452L65.2123 73.1979C65.3601 73.3458 65.2123 73.5676 65.0644 73.5676Z" fill="white"/>
</g>
<defs>
<clipPath id="clip0">
<rect width="89.0943" height="80" fill="white"/>
</clipPath>
</defs>
</svg>
