<svg width="99" height="80" viewBox="0 0 99 80" fill="none" xmlns="http://www.w3.org/2000/svg">
<g clip-path="url(#clip0)">
<path d="M0 80C0 80 0.520446 75.6134 5.20446 76.5056C5.20446 76.5056 3.19703 67.0632 9.44238 65.2045C15.6877 63.3457 17.026 70.4089 22.8996 69.5911C28.7732 68.7732 20.6691 49.368 26.3941 41.7844C32.119 34.2007 45.948 42.974 45.948 42.974C45.948 42.974 50.855 22.3792 65.5019 27.5093C80.1487 32.6394 71.0781 57.7695 84.3123 63.1227C97.5465 68.4758 98.8104 80 98.8104 80H0Z" fill="#F4F5F7"/>
<path d="M86.5433 50.4092H60.9671C59.034 50.4092 57.4727 48.8478 57.4727 46.9148V29.74C57.4727 27.8069 59.034 26.2456 60.9671 26.2456H86.6176C88.5507 26.2456 90.1121 27.8069 90.1121 29.74V46.9148C90.0377 48.8478 88.4764 50.4092 86.5433 50.4092Z" fill="#74CE63"/>
<path d="M91.7463 50.4092H66.0957C64.1626 50.4092 62.3782 48.8478 62.0808 46.9148L59.6273 29.74C59.3299 27.8069 60.6682 26.2456 62.6013 26.2456H88.2518C90.1849 26.2456 91.9693 27.8069 92.2667 29.74L94.7202 46.9148C95.0176 48.8478 93.6794 50.4092 91.7463 50.4092Z" fill="#A2EA92"/>
<path d="M72.8639 47.2864C72.7152 47.2864 72.6409 47.2121 72.6409 47.0634L70.2617 32.4165C70.2617 32.2678 70.3361 32.1935 70.4848 32.1191C70.6335 32.1191 70.7078 32.1935 70.7822 32.3422L73.1613 46.989C73.087 47.1377 73.0126 47.2121 72.8639 47.2864Z" fill="#F4F5F7"/>
<path d="M84.1647 47.2864C84.016 47.2864 83.9417 47.2121 83.9417 47.0634L81.5625 32.4165C81.5625 32.2678 81.6369 32.1935 81.7856 32.1191C81.9343 32.1191 82.0086 32.1935 82.083 32.3422L84.4621 46.989C84.4621 47.1377 84.3134 47.2121 84.1647 47.2864Z" fill="#F4F5F7"/>
<path d="M90.2612 38.5877H64.0902C63.9415 38.5877 63.8672 38.5133 63.8672 38.3646C63.8672 38.216 63.9415 38.1416 64.0902 38.1416H90.1869C90.3356 38.1416 90.4099 38.216 90.4099 38.3646C90.4099 38.5133 90.3356 38.5877 90.2612 38.5877Z" fill="#F4F5F7"/>
<path d="M64.0888 29.5168C63.9401 29.5168 63.8658 29.4425 63.8658 29.2938C63.8658 29.1451 63.9401 29.0707 64.0888 29.0707C64.9067 29.0707 65.5758 28.4016 65.5758 27.5837V26.2455C65.5758 25.502 64.981 24.9072 64.2375 24.9072C63.494 24.9072 62.8992 25.502 62.8992 26.2455C62.8992 26.3942 62.8249 26.4685 62.6762 26.4685C62.5275 26.4685 62.4531 26.3942 62.4531 26.2455C62.4531 25.2046 63.271 24.3867 64.3119 24.3867C65.3528 24.3867 66.1706 25.2046 66.1706 26.2455V27.5094C66.0962 28.6246 65.204 29.5168 64.0888 29.5168Z" fill="#47AFFA"/>
<path d="M71.3037 29.5168C71.155 29.5168 71.0806 29.4425 71.0806 29.2938C71.0806 29.1451 71.155 29.0707 71.3037 29.0707C72.1215 29.0707 72.7907 28.4016 72.7907 27.5837V26.2455C72.7907 25.502 72.1959 24.9072 71.4524 24.9072C70.7089 24.9072 70.1141 25.502 70.1141 26.2455C70.1141 26.3942 70.0397 26.4685 69.891 26.4685C69.7423 26.4685 69.668 26.3942 69.668 26.2455C69.668 25.2046 70.4858 24.3867 71.5267 24.3867C72.5676 24.3867 73.3854 25.2046 73.3854 26.2455V27.5094C73.3111 28.6246 72.4189 29.5168 71.3037 29.5168Z" fill="#47AFFA"/>
<path d="M78.5146 29.5168C78.3659 29.5168 78.2915 29.4425 78.2915 29.2938C78.2915 29.1451 78.3659 29.0707 78.5146 29.0707C79.3324 29.0707 80.0016 28.4016 80.0016 27.5837V26.2455C80.0016 25.502 79.4068 24.9072 78.6633 24.9072C77.9198 24.9072 77.325 25.502 77.325 26.2455C77.325 26.3942 77.2507 26.4685 77.102 26.4685C76.9533 26.4685 76.8789 26.3942 76.8789 26.2455C76.8789 25.2046 77.6968 24.3867 78.7376 24.3867C79.7785 24.3867 80.5964 25.2046 80.5964 26.2455V27.5094C80.522 28.6246 79.6298 29.5168 78.5146 29.5168Z" fill="#47AFFA"/>
<path d="M85.7255 29.5168C85.5768 29.5168 85.5025 29.4425 85.5025 29.2938C85.5025 29.1451 85.5768 29.0707 85.7255 29.0707C86.5434 29.0707 87.2125 28.4016 87.2125 27.5837V26.2455C87.2125 25.502 86.6177 24.9072 85.8742 24.9072C85.1307 24.9072 84.5359 25.502 84.5359 26.2455C84.5359 26.3942 84.4616 26.4685 84.3129 26.4685C84.1642 26.4685 84.0898 26.3942 84.0898 26.2455C84.0898 25.2046 84.9077 24.3867 85.9486 24.3867C86.9895 24.3867 87.8073 25.2046 87.8073 26.2455V27.5094C87.733 28.6246 86.8408 29.5168 85.7255 29.5168Z" fill="#47AFFA"/>
<path d="M20.5214 55.1674H36.8039C37.3243 55.1674 37.7704 55.6135 37.8448 56.1339C38.3652 60.0744 41.934 62.8254 46.7667 62.8254C51.8225 62.8254 55.3169 59.4796 55.2425 54.6469C55.3169 49.9629 51.1533 46.6172 45.2797 46.6172H42.0083C41.4136 46.6172 40.9675 46.0968 40.9675 45.4276V33.3086C40.9675 32.6395 41.4136 32.1191 42.0083 32.1191H45.3541C50.7816 32.1191 54.5734 28.7733 54.4991 24.0893C54.5734 19.554 51.3764 16.357 46.7667 16.357C42.157 16.357 38.737 19.1823 38.2165 23.3458C38.1422 23.9406 37.6961 24.3867 37.1756 24.3867H21.8596C21.2649 24.3867 20.7444 23.7919 20.8188 23.1228C21.4879 9.66552 32.0455 0.223145 46.7667 0.223145C61.6366 0.223145 72.0455 9.73987 72.0455 22.751C72.1199 31.3756 66.3206 37.3235 58.2909 38.3644V38.9592C69.0715 40.2975 74.5734 46.9889 74.4991 56.5057C74.5734 70.186 63.0492 79.7771 46.618 79.7771C31.2277 79.7771 20.1496 70.1116 19.4805 56.357C19.4805 55.6878 19.9266 55.1674 20.5214 55.1674Z" fill="#47AFFA"/>
<g opacity="0.3">
<path d="M74.4994 56.5055C74.5737 46.9888 69.0719 40.2974 58.2912 38.9591V38.3643C66.2466 37.3977 72.1202 31.4498 72.0458 22.7509C72.1202 10.3345 62.6035 1.11521 48.7745 0.297363C44.8339 4.01484 41.1908 9.66539 42.6035 17.3234C43.793 16.7286 45.2057 16.4312 46.767 16.4312C51.3767 16.4312 54.5737 19.6282 54.4994 24.1635C54.5737 27.658 52.4176 30.4089 49.0719 31.5985C56.8785 43.8661 66.544 53.0111 58.4399 65.1301C54.202 71.3754 54.6481 75.6877 56.6555 78.513C67.5105 75.3903 74.5737 67.2119 74.4994 56.5055Z" fill="#2871EA"/>
</g>
<path d="M15.7617 41.9333L20.3714 47.4351C20.4457 47.5095 20.5944 47.5838 20.6688 47.5838L21.2636 47.6582C21.561 47.7325 21.8584 47.4351 21.784 47.0634L21.6353 46.3199C21.6353 46.2455 21.561 46.1712 21.561 46.0968L21.2636 45.7251C21.1892 45.6508 21.0405 45.5764 20.8918 45.5764C20.7431 45.5764 20.5201 45.5764 20.297 45.4277C19.9253 45.1303 20.2227 44.1638 19.7766 43.6433C19.4048 43.2716 18.9587 43.1229 18.7357 43.1229C18.6613 43.1229 18.6613 43.0485 18.7357 43.0485L18.9587 42.8255V42.7511L17.1 40.4463L15.7617 41.9333Z" fill="#D6D9E0"/>
<path d="M16.9509 41.5615L21.5606 47.5838C21.7093 47.5095 21.858 47.2864 21.7836 47.0634L21.6349 46.3199C21.6349 46.2455 21.5606 46.1712 21.5606 46.0968L21.2632 45.7251C21.1888 45.6508 21.0401 45.5764 20.8914 45.5764C20.7427 45.5764 20.5197 45.5764 20.2966 45.4277C19.9249 45.1303 20.2223 44.1638 19.7762 43.6433C19.4045 43.2716 18.9584 43.1229 18.7353 43.1229C18.661 43.1229 18.661 43.0485 18.7353 43.0485L18.9584 42.8255V42.7511L17.0996 40.4463L16.0587 41.4872L15.9844 41.6359L16.9509 41.5615Z" fill="#AFB3BA"/>
<path d="M16.8757 41.8587C18.5857 40.5205 19.9983 39.5539 18.7344 37.7695C17.4705 35.9851 14.9426 35.6877 13.2325 37.026C11.5225 38.3643 11.1507 40.8179 12.489 42.5279C13.8273 44.2379 15.1656 43.197 16.8757 41.8587ZM14.7195 39.6283C14.4221 39.8513 14.0504 39.777 13.8273 39.4796C13.6043 39.1822 13.6786 38.8104 13.976 38.5874L14.4965 38.1413C14.7939 37.9182 15.1656 37.9926 15.3887 38.29C15.6117 38.5874 15.5374 38.9591 15.24 39.1822L14.7195 39.6283Z" fill="#555A68"/>
<path d="M89.0694 70.0375C88.5489 69.8888 88.2515 70.1862 88.2515 70.6323V70.7067C88.2515 70.781 88.2515 70.9297 88.1028 70.9297C88.1028 70.9297 88.1028 70.9297 88.1028 70.8554L86.6159 67.5096C86.3928 67.0635 85.8724 66.6918 85.2776 66.5431C84.6828 66.4687 82.0062 66.4688 80.8166 66.4688C79.627 66.4688 76.9504 66.5431 76.3556 66.6174C75.7608 66.6918 75.2404 67.1379 75.0173 67.584C74.7943 68.0301 73.8277 70.4093 73.6047 70.9297C73.6047 70.9297 73.6047 70.9297 73.6047 71.0041C73.456 71.0041 73.456 70.8554 73.456 70.781V70.7067C73.456 70.1862 73.0843 69.9632 72.6382 70.1119C72.2664 70.1862 71.8203 70.4836 71.8203 70.781C71.8203 71.0041 72.1921 71.2271 72.4895 71.3758C72.7125 71.4502 72.9356 71.3758 73.0843 71.3015C73.3073 71.2271 73.3817 71.3015 73.456 71.3015C73.233 71.7476 72.8612 72.3424 72.7869 72.7885C72.7125 73.1602 72.7125 74.6472 72.7869 75.9111V79.1825C72.7869 79.6286 73.1586 79.926 73.5304 79.926H74.1995C74.6456 79.926 74.943 79.5543 74.943 79.1825V78.5134L86.7645 78.3647V79.1825C86.7645 79.6286 87.1363 79.926 87.508 79.926H88.1772C88.6233 79.926 88.9207 79.5543 88.9207 79.1825L88.8463 75.9111C88.8463 74.6472 88.8463 73.0115 88.772 72.6398C88.6976 72.1193 88.3259 71.5989 88.1028 71.1528C88.1028 71.1528 88.1772 71.0784 88.4746 71.1528C88.6233 71.2271 88.8463 71.2271 89.0694 71.1528C89.4411 71.0784 89.7385 70.8554 89.7385 70.558C89.8872 70.4093 89.3668 70.1119 89.0694 70.0375Z" fill="#47AFFA"/>
<path d="M84.0874 73.9778C84.0131 73.6804 83.567 73.5317 83.1953 73.5317L78.5112 73.6061C78.1395 73.6061 77.6934 73.8291 77.619 74.1265C77.5447 74.4239 77.9164 75.5392 78.1395 75.6879C78.2882 75.9109 78.4369 75.9109 78.9573 75.9109L82.8979 75.8366C83.4183 75.8366 83.567 75.7622 83.7157 75.5392C83.79 75.3905 84.2361 74.2752 84.0874 73.9778Z" fill="#5A68E7"/>
<path d="M87.4335 70.4839C87.3592 70.1865 86.467 68.1047 86.2439 67.6586C86.0209 67.2125 75.6863 67.2868 75.4633 67.7329C75.2402 68.179 74.348 70.3352 74.2737 70.6326C74.1993 70.93 74.348 71.0043 74.4967 71.0043L87.2105 70.8556C87.4335 70.8556 87.5079 70.7069 87.4335 70.4839Z" fill="#5A68E7"/>
<path d="M84.9805 73.4575C84.9805 73.4575 85.5009 74.3497 85.8727 74.3497H87.8057C88.1031 74.3497 88.1775 74.201 88.2518 73.9779C88.3262 73.8292 88.3262 72.937 88.2518 72.6396C88.1775 72.6396 86.9879 73.1601 84.9805 73.4575Z" fill="white"/>
<path d="M76.7256 73.4575C76.7256 73.4575 76.2051 74.3497 75.8334 74.3497H73.9003C73.6029 74.3497 73.5285 74.201 73.4542 73.9779C73.3799 73.7549 73.3799 72.937 73.4542 72.6396C73.5285 72.6396 74.7181 73.1601 76.7256 73.4575Z" fill="white"/>
<path d="M17.102 24.6099C16.9533 24.6099 16.8789 24.4612 16.8789 24.3868C16.8789 24.2381 17.9941 5.87383 34.6484 0.0745778C34.7971 0.000228357 34.9458 0.0745778 34.9458 0.223277C35.0202 0.371976 34.9458 0.520674 34.7971 0.520674C18.4402 6.24558 17.3994 24.2381 17.3994 24.3868C17.325 24.4612 17.2507 24.6099 17.102 24.6099Z" fill="#B9C8FC"/>
</g>
<defs>
<clipPath id="clip0">
<rect width="98.8104" height="80" fill="white"/>
</clipPath>
</defs>
</svg>
