<svg width="103" height="80" viewBox="0 0 103 80" fill="none" xmlns="http://www.w3.org/2000/svg">
<g clip-path="url(#clip0)">
<path d="M102.878 79.9998C102.878 79.9998 99.8717 68.7074 91.7324 68.0474C83.6664 67.4608 80 73.9869 80 73.9869C80 73.9869 78.4601 61.5946 60.275 61.228C42.0898 60.788 43.2631 74.7202 43.2631 74.7202C43.2631 74.7202 31.824 62.9878 19.6517 66.3609C11.879 68.4874 10.9991 76.3334 10.9991 76.3334C10.9991 76.3334 8.57928 75.6734 6.89276 77.14C5.20623 78.6065 0.513291 77.58 0 79.9264L102.878 79.9998Z" fill="#F4F5F7"/>
<path d="M18.7712 70.6142C18.7712 66.9478 20.3844 63.5015 23.0975 61.155L46.6356 40.99C52.1351 36.2971 55.5082 32.704 55.5082 27.2778C55.5082 21.3383 51.5485 17.7453 45.9756 17.7453C40.6961 17.7453 37.0297 20.9717 36.5897 26.6912C36.5164 27.3511 36.0031 27.8644 35.3432 27.8644H18.4046C17.818 27.8644 17.3047 27.3511 17.3047 26.7645C17.818 11.1458 28.9637 1.61328 45.9756 1.61328C63.8675 1.61328 75.3065 11.0725 75.3065 25.518C75.3065 34.4639 70.9802 42.0899 53.9683 56.7554L46.9289 62.7682V63.2081H73.7666C74.5732 63.2081 75.1599 63.8681 75.1599 64.6014V79.9268H18.6979V70.6142H18.7712Z" fill="#5A68E7"/>
<path d="M22.4375 50.1555L25.0773 51.9154L24.2707 48.249C24.2707 48.249 22.9508 48.9823 22.4375 50.1555Z" fill="#151619"/>
<path d="M17.0859 42.5298L20.3857 52.2823L23.9787 48.5426L29.6982 46.7094L17.0859 42.5298Z" fill="#FFA69F"/>
<path d="M17.0859 42.5298L23.9787 48.5426L25.0786 51.9157V48.2493L17.0859 42.5298Z" fill="#FF7268"/>
<path d="M27.2031 53.4556L56.6807 79.78H59.6138L27.2031 53.4556Z" fill="#4F34D2"/>
<path d="M20.3125 53.0156L25.4454 57.8552L24.1255 57.0486L20.3125 53.0156Z" fill="#4F34D2"/>
<path d="M32.043 48.6157L40.4023 55.5085C40.4023 55.5085 34.5361 51.3288 32.043 48.6157Z" fill="#4F34D2"/>
<path d="M68.6325 53.162C69.1458 49.7889 71.9322 47.3691 75.0853 47.3691C78.2383 47.3691 79.9982 49.9356 79.5582 52.8687C79.2649 54.5552 78.3117 56.0951 76.7718 56.0951C76.0385 56.0951 75.5986 55.7284 75.7452 54.7752H75.6719C75.1586 55.5818 74.352 56.1684 73.3254 56.1684C71.8589 56.1684 70.9789 54.7752 71.2723 53.0887C71.5656 51.4021 72.8855 50.0823 74.352 50.0823C75.3053 50.0823 76.0385 50.5955 76.2585 51.3288H76.3318L76.5518 50.1556H77.0651L76.3318 54.5552C76.1852 55.3618 76.3318 55.6551 76.9185 55.6551C78.0184 55.6551 78.825 54.5552 79.1183 52.8687C79.5582 50.1556 78.0184 47.8091 75.1586 47.8091C72.2988 47.8091 69.8057 50.0823 69.2924 53.0887C68.7791 56.1684 70.4657 58.3682 73.3987 58.3682C74.4253 58.3682 75.4519 58.0016 76.2585 57.635L76.4052 58.0749C75.5252 58.5882 74.4253 58.8815 73.3987 58.8815C69.9524 58.9548 68.0459 56.535 68.6325 53.162ZM76.0385 53.0887C76.2585 51.5488 75.5986 50.5955 74.352 50.5955C73.1788 50.5955 72.0055 51.6954 71.7855 53.0887C71.5656 54.4819 72.1522 55.6551 73.3987 55.6551C74.7186 55.7284 75.7452 54.6285 76.0385 53.0887Z" fill="#2871EA"/>
<g opacity="0.3">
<path d="M61.9615 16.5717C71.1274 27.5708 62.2548 49.2757 48.3959 41.4296C47.956 41.1363 47.516 40.9164 47.0761 40.6964C46.9294 40.7697 46.8561 40.9164 46.7094 40.9897L37.9102 48.4691C41.8698 51.4755 48.176 54.9218 54.1888 56.4617C71.0541 41.8696 75.3804 34.3169 75.3804 25.371C75.3804 14.5185 68.9276 6.45256 58.0751 3.15283C57.0486 6.3059 57.1952 10.7789 61.9615 16.5717Z" fill="#47AFFA"/>
</g>
<path d="M28.5226 66.5811C28.5226 66.5811 26.3227 72.3006 21.7031 72.9605L24.3429 74.4271C28.0093 76.4802 32.6289 75.1603 34.6087 71.4207C34.902 70.9074 35.122 70.3207 35.4153 69.7341L28.5226 66.5811Z" fill="#AEE2FF"/>
<path d="M24.6367 74.647C24.6367 74.647 26.9099 75.3803 28.0831 73.3271C28.0831 73.3271 30.4296 75.2337 32.5561 73.9138C32.5561 73.9138 29.2563 77.2135 24.6367 74.647Z" fill="#4F34D2"/>
<path d="M82.3479 25.4443H73.6953V26.3976H82.3479V25.4443Z" fill="#AEE2FF"/>
<path d="M82.3479 29.0376H73.6953V29.9909H82.3479V29.0376Z" fill="#AEE2FF"/>
<path d="M82.3479 32.5571H73.6953V33.5104H82.3479V32.5571Z" fill="#AEE2FF"/>
<path d="M14.7395 28.0842C14.5929 28.0842 14.5195 28.0109 14.5195 27.8643C14.5195 27.6443 14.8128 2.34639 39.2308 0.0732422C39.3775 0.0732422 39.4508 0.146569 39.5241 0.293224C39.5241 0.439878 39.4508 0.513206 39.3041 0.586533C15.2528 2.85968 15.0328 27.7176 15.0328 27.9376C15.0328 27.9376 14.8862 28.0842 14.7395 28.0842Z" fill="#B9C8FC"/>
<path d="M75.2335 72.2272C75.2335 72.2272 79.0465 69.5874 82.4195 68.3408L78.2399 77.8734C78.2399 77.8734 81.8329 76.4068 83.9594 75.8202L80.2931 79.9265H75.1602V72.2272H75.2335Z" fill="#A2EA92"/>
</g>
<defs>
<clipPath id="clip0">
<rect width="102.878" height="80" fill="white"/>
</clipPath>
</defs>
</svg>
