<svg width="83" height="80" viewBox="0 0 83 80" fill="none" xmlns="http://www.w3.org/2000/svg">
<g clip-path="url(#clip0)">
<path d="M81.8534 80H0.816406C0.816406 80 1.63122 74.5926 8.66826 75.5556C15.7053 76.5926 16.7423 71.3333 21.4831 66.5926C26.2238 61.8518 31.0386 65.2593 36.0016 64.1481C40.9646 63.037 43.8534 48.0741 50.8905 47.8518C57.9275 47.6296 61.409 53.4815 64.0757 58.7407C66.7423 64 81.8534 66.2222 81.8534 80Z" fill="#F4F5F7"/>
<path d="M46.3725 0.518555C28.0022 0.518555 13.1133 18.2963 13.1133 40.2223C13.1133 62.2223 28.0022 80 46.3725 80C64.7429 80 79.6318 62.2223 79.6318 40.2963C79.6318 18.2963 64.7429 0.518555 46.3725 0.518555ZM46.3725 61.7037C37.4837 61.7037 30.2985 52.0741 30.2985 40.2963C30.2985 28.4445 37.4837 18.8889 46.3725 18.8889C55.2614 18.8889 62.4466 28.5186 62.4466 40.2963C62.4466 52.0741 55.2614 61.7037 46.3725 61.7037Z" fill="#5A68E7"/>
<path d="M72.8892 69.9258H52.1484V79.9999H72.8892V69.9258Z" fill="#FFF1A8"/>
<path d="M59.4818 69.9258H52.1484V79.9999H59.4818V69.9258Z" fill="#FFE662"/>
<path d="M72.8918 70.6665H59.4844V70.8887H72.8918V70.6665Z" fill="#FFC400"/>
<path d="M72.8918 71.8521H59.4844V72.0743H72.8918V71.8521Z" fill="#FFC400"/>
<path d="M72.8918 73.0371H59.4844V73.2593H72.8918V73.0371Z" fill="#FFC400"/>
<path d="M72.8918 74.2222H59.4844V74.4444H72.8918V74.2222Z" fill="#FFC400"/>
<path d="M72.8918 75.4072H59.4844V75.6294H72.8918V75.4072Z" fill="#FFC400"/>
<path d="M72.8918 76.5928H59.4844V76.815H72.8918V76.5928Z" fill="#FFC400"/>
<path d="M72.8918 77.7778H59.4844V78.0001H72.8918V77.7778Z" fill="#FFC400"/>
<path d="M72.8918 79.0371H59.4844V79.2593H72.8918V79.0371Z" fill="#FFC400"/>
<path d="M59.4818 70.6665H52.1484V70.8887H59.4818V70.6665Z" fill="#FFA800"/>
<path d="M59.4818 71.8521H52.1484V72.0743H59.4818V71.8521Z" fill="#FFA800"/>
<path d="M59.4818 73.0371H52.1484V73.2593H59.4818V73.0371Z" fill="#FFA800"/>
<path d="M59.4818 74.2222H52.1484V74.4444H59.4818V74.2222Z" fill="#FFA800"/>
<path d="M59.4818 75.4072H52.1484V75.6294H59.4818V75.4072Z" fill="#FFA800"/>
<path d="M59.4818 76.5928H52.1484V76.815H59.4818V76.5928Z" fill="#FFA800"/>
<path d="M59.4818 77.7778H52.1484V78.0001H59.4818V77.7778Z" fill="#FFA800"/>
<path d="M59.4818 79.0371H52.1484V79.2593H59.4818V79.0371Z" fill="#FFA800"/>
<path d="M61.2617 69.9259C61.2617 69.9259 68.0765 69.4074 69.2617 64.2222C69.2617 64.2222 70.595 67.1851 68.9654 69.9259H61.2617Z" fill="#FFA800"/>
<path d="M59.7812 63.037C59.7812 63.037 60.8924 63.4074 62.6701 62.2222C62.6701 62.2222 63.9294 64.074 66.8183 63.9999C66.8183 63.9999 63.4109 64.7407 59.7812 63.037Z" fill="#351CB0"/>
<path d="M55.1113 60.8149C55.1113 60.8149 59.1113 64.0742 66.889 64.0001C66.889 64.0001 64.9631 65.7779 59.5557 65.4816C54.9631 65.2594 50.0742 63.0372 50.0742 63.0372C50.0742 63.0372 53.1113 62.1483 55.1113 60.8149Z" fill="#FFE662"/>
<g opacity="0.3">
<path d="M13.1133 40.2221C13.1133 41.6296 13.1874 43.037 13.3355 44.4444C20.2985 41.8518 26.0762 38.5184 30.817 34.7407C32.5207 26.2962 37.9281 19.9258 44.5948 18.9629C48.5207 12.3703 50.6688 5.92585 51.78 1.11103C50.0022 0.740664 48.2244 0.592516 46.3725 0.592516C28.0022 0.518442 13.1133 18.2962 13.1133 40.2221Z" fill="#47AFFA"/>
</g>
<path d="M78.8183 16.0741C80.4956 16.0741 81.8553 14.7143 81.8553 13.037C81.8553 11.3597 80.4956 10 78.8183 10C77.141 10 75.7812 11.3597 75.7812 13.037C75.7812 14.7143 77.141 16.0741 78.8183 16.0741Z" fill="#74CE63"/>
<path d="M9.18837 72.7407C9.18837 72.7407 10.0773 69.4074 13.1143 69.8518C16.0773 70.3704 15.5587 76.4444 17.7069 76.2222C19.855 76 24.0773 76.2222 23.7069 79.9259H1.63281C1.63281 80 1.70689 73.1111 9.18837 72.7407Z" fill="#CBF9BB"/>
<path d="M11.7066 67.0369C11.7066 67.0369 10.4474 65.4073 12.5955 63.9258C12.5955 63.9258 13.5585 66.3702 11.7066 67.0369Z" fill="#A2EA92"/>
<path d="M64.67 43.0372H57.9293C57.7811 43.0372 57.707 42.9631 57.707 42.815C57.707 42.6668 57.7811 42.5928 57.9293 42.5928H64.67C64.8181 42.5928 64.8922 42.6668 64.8922 42.815C64.8922 42.9631 64.7441 43.0372 64.67 43.0372Z" fill="#B9C8FC"/>
<path d="M64.67 39.7779H57.9293C57.7811 39.7779 57.707 39.7039 57.707 39.5557C57.707 39.4076 57.7811 39.3335 57.9293 39.3335H64.67C64.8181 39.3335 64.8922 39.4076 64.8922 39.5557C64.8922 39.7039 64.7441 39.7779 64.67 39.7779Z" fill="#B9C8FC"/>
<path d="M64.67 36.5929H57.9293C57.7811 36.5929 57.707 36.5188 57.707 36.3707C57.707 36.2225 57.7811 36.1484 57.9293 36.1484H64.67C64.8181 36.1484 64.8922 36.2225 64.8922 36.3707C64.8922 36.4447 64.7441 36.5929 64.67 36.5929Z" fill="#B9C8FC"/>
<path d="M11.1865 43.7778C11.0384 43.7778 10.9643 43.7037 10.9643 43.5556C8.7421 10.2222 34.4458 0.148148 34.7421 0C34.8162 0 34.9643 0 35.0384 0.148148C35.1125 0.296296 35.0384 0.444444 34.8902 0.444444C34.668 0.518519 9.26061 10.5185 11.4088 43.4815C11.4088 43.7037 11.3347 43.7778 11.1865 43.7778Z" fill="#B9C8FC"/>
<path d="M74.0771 66.5187C74.0031 66.5187 74.0031 66.5187 73.929 66.4446C73.8549 66.3705 73.7808 66.2224 73.8549 66.0742C80.966 56.9631 81.8549 39.7039 81.8549 39.5557C81.8549 39.4076 82.0031 39.3335 82.0771 39.3335C82.2253 39.3335 82.2993 39.4816 82.2993 39.5557C82.2993 39.7039 81.4105 57.1113 74.1512 66.3705C74.2253 66.4446 74.1512 66.5187 74.0771 66.5187Z" fill="#B9C8FC"/>
<path d="M9.1875 72.7407C9.1875 72.7407 11.8542 76.1481 11.706 79.9259H10.0764C10.0764 79.9259 9.85417 75.037 9.1875 72.7407Z" fill="#74CE63"/>
<path d="M10.0759 79.9999C11.2611 68.7406 0.372184 61.7036 0.372184 61.7036C-1.77596 74.8147 6.07589 79.9999 6.07589 79.9999H10.0759Z" fill="#A2EA92"/>
<path d="M7.78096 79.9999L1.85503 65.7036L1.63281 64.4443L2.29948 65.4814L8.29948 79.9999H7.78096Z" fill="#CBF9BB"/>
<path d="M23.8546 80.0002H23.6324C23.7065 78.9631 23.4842 78.1483 22.8916 77.5557C21.6324 76.2965 19.1879 76.3706 18.0027 76.4446H17.7805C16.1509 76.5187 15.4102 72.815 15.4102 72.6668L15.6324 72.5928C15.6324 72.5928 16.3731 76.2224 17.7805 76.2224H18.0027C19.262 76.1483 21.7805 76.0743 23.1139 77.4076C23.7065 78.0002 24.0028 78.8891 23.8546 80.0002Z" fill="#74CE63"/>
</g>
<defs>
<clipPath id="clip0">
<rect width="82.3704" height="80" fill="white"/>
</clipPath>
</defs>
</svg>
