<svg width="148" height="148" viewBox="0 0 148 148" fill="none" xmlns="http://www.w3.org/2000/svg">
<circle cx="74" cy="74" r="74" fill="white"/>
<path d="M64.168 101.071C64.168 101.071 64.7203 105.358 66.4876 106.677C68.2549 107.941 97.8025 118.055 97.8025 118.055C119.673 101.126 120.999 77.9301 120.999 77.9301C120.999 77.9301 82.6145 59.0769 80.4606 60.3411C78.2514 61.5504 64.168 101.071 64.168 101.071Z" fill="#5A68E7"/>
<path d="M64.6641 100.741C64.6641 100.741 65.5477 104.204 67.0941 105.083C71.7334 107.667 78.8027 93.6504 78.8027 93.6504L64.6641 100.741Z" fill="#080E2B"/>
<path d="M34.3984 96.8933C34.3984 96.8933 42.9037 102.665 62.5653 101.071L72.3409 54.5148C72.3409 54.5148 63.5594 33.5179 60.4666 35.057C57.3738 36.596 59.0306 55.7241 59.0306 55.7241C59.0306 55.7241 43.4008 59.4068 42.4619 62.9795C41.4125 66.5523 34.3984 96.8933 34.3984 96.8933Z" fill="#FFA69F"/>
<path d="M79.5769 47.699C79.4665 47.9738 78.5276 50.1724 78.5276 50.1724L71.7344 47.2592C71.7344 47.2592 72.618 45.2255 72.7837 44.7858C72.9494 44.3461 74.6615 44.6209 76.5393 45.3904C78.4171 46.2149 79.7978 47.2043 79.5769 47.699Z" fill="#5A68E7"/>
<path d="M63.7266 52.7558L64.3341 50.6122C64.6655 49.4029 65.8253 48.6334 67.0955 48.7983C70.2436 49.238 76.1531 50.5572 79.8535 54.5147C80.5714 55.2842 80.7371 56.4385 80.2401 57.3729L78.9698 59.8464C79.025 59.8464 74.7172 54.2399 63.7266 52.7558Z" fill="#080E2B"/>
<path d="M72.6172 51.4365L74.1636 47.9736L76.1519 49.018L74.7159 52.261" fill="#080E2B"/>
<path d="M78.5274 50.1174C78.7483 49.6777 77.3675 48.6333 75.4898 47.8638C73.612 47.0943 71.9551 46.7645 71.7342 47.2592C71.5133 47.6989 72.894 48.7432 74.7718 49.5128C76.6496 50.2823 78.3617 50.5571 78.5274 50.1174Z" fill="#080E2B"/>
<path d="M62.5681 101.126C76.044 101.126 87.0346 90.2423 87.0346 76.8307C87.0346 63.4191 76.0992 52.5359 62.5681 52.5359C49.0922 52.5359 38.1016 63.4191 38.1016 76.8307C38.1016 90.2423 49.0369 101.126 62.5681 101.126Z" fill="#47AFFA"/>
<path d="M62.5673 96.2887C73.3922 96.2887 82.1736 87.5492 82.1736 76.8309C82.1736 66.0576 73.3922 57.373 62.5673 57.373C51.7424 57.373 42.9609 66.0576 42.9609 76.8309C42.9609 87.6041 51.7424 96.2887 62.5673 96.2887Z" fill="white"/>
<path d="M36.609 54.6795C43.4574 51.9862 55.0003 60.0112 54.8899 63.4191C54.7242 65.8925 42.4081 62.9793 42.4081 62.9793C42.4081 62.9793 55.9944 63.5839 56.9886 67.6514C57.9827 71.7189 44.3963 75.3466 44.3963 75.3466C44.3963 75.3466 55.9944 73.8625 55.6078 76.7207C55.2212 79.6339 46.1637 85.4603 46.1637 85.4603C46.1637 85.4603 55.4421 81.5027 55.3317 84.6908C55.2765 87.8788 44.5068 93.5952 44.5068 93.5952L41.193 96.3984C41.193 96.3984 27.6619 103.984 27.0544 77.93C26.8335 70.5646 29.8158 57.3728 36.609 54.6795Z" fill="#FFA69F"/>
<path d="M46.3274 85.5701L46.1065 85.2403C54.2252 79.8537 55.2745 77.4902 55.3297 76.6657C55.3297 76.3359 55.2745 76.226 55.2745 76.226C55.2745 76.226 53.7833 74.522 44.4496 75.6213C39.5342 76.0611 34.6188 77.6551 34.5636 77.6551L34.4531 77.2703C34.5084 77.2703 39.479 75.6213 44.4496 75.1816C53.7281 74.1373 55.4402 75.7313 55.6611 75.9511C55.7163 76.0061 55.882 76.226 55.882 76.6657C55.7163 77.8749 54.0042 80.4583 46.3274 85.5701Z" fill="#080E2B"/>
<path d="M44.3958 75.5116L44.2854 75.0718C54.3923 72.2136 56.491 69.6852 56.7672 68.476C56.9881 67.6515 56.5462 67.1568 56.5462 67.1568C56.5462 67.1568 54.558 64.2986 44.2854 63.3092C44.2854 63.3092 40.2536 63.0344 37.5474 63.3092L37.4922 62.8695C40.2536 62.5946 44.2854 62.8695 44.3406 62.8695C54.6132 63.8039 56.7672 66.6071 56.9328 66.882C57.0433 66.9919 57.5404 67.5965 57.2642 68.5859C56.7672 70.2349 54.2266 72.7633 44.3958 75.5116Z" fill="#080E2B"/>
<path d="M43.9534 97.113L43.5668 96.8932C44.7818 94.7495 44.2296 93.6502 44.2296 93.6502L44.1191 93.4853L44.2848 93.3754C44.34 93.3204 52.9558 88.6483 54.5574 85.7901C54.8335 85.2405 55.1649 84.5259 54.8335 84.0862C54.5022 83.5915 53.3976 83.5915 52.9558 83.6465C52.9005 83.6465 46.5492 84.5809 41.3576 88.1536L41.1367 87.8239C46.4387 84.1412 52.8453 83.2617 52.9005 83.2617C52.9558 83.2617 54.6126 83.0418 55.1649 83.8663C55.4963 84.361 55.3858 85.0756 54.8888 86.01C53.3424 88.7583 45.8312 92.9906 44.6162 93.6502C44.8371 94.0899 45.0028 95.2442 43.9534 97.113Z" fill="#080E2B"/>
<path d="M55.0557 63.2542H54.6138C54.6691 61.7152 52.5151 60.0662 52.4599 60.0662C41.8007 52.0962 36.1121 55.1193 36.0569 55.1742L35.8359 54.7895C36.0569 54.6796 41.8559 51.5465 52.7361 59.7364C52.9017 59.7364 55.1661 61.4403 55.0557 63.2542Z" fill="white"/>
<path d="M68.4208 63.749L64.1129 77.4904C63.8368 78.4249 62.8426 78.9195 61.9038 78.6447C60.9649 78.3699 60.4678 77.3805 60.7439 76.4461C60.7992 76.3362 60.8544 76.1713 60.9096 76.0613L68.4208 63.749Z" fill="#080E2B"/>
<path d="M43.1273 43.7415C44.1214 43.7415 44.9498 42.917 44.9498 41.9276C44.9498 40.9383 44.1214 40.1138 43.1273 40.1138C42.1331 40.1138 41.3047 40.9383 41.3047 41.9276C41.3047 42.917 42.1331 43.7415 43.1273 43.7415Z" fill="#FFE662"/>
<path fill-rule="evenodd" clip-rule="evenodd" d="M110.508 38.1899C110.508 40.8282 108.354 42.9719 105.703 42.9719C103.052 42.9719 100.898 40.8282 100.898 38.1899V30.1099H102.666V38.1899C102.666 39.8938 104.047 41.213 105.759 41.213C107.471 41.213 108.851 39.8389 108.851 38.1899V30H110.619V38.1899H110.508Z" fill="#FF7268"/>
<path fill-rule="evenodd" clip-rule="evenodd" d="M106.475 42.0925V49.7877H105.591C104.045 49.7877 102.83 51.0519 102.83 52.536C102.83 54.075 104.045 55.2843 105.591 55.2843C107.138 55.2843 108.353 54.075 108.353 52.536H110.12C110.12 55.0095 108.077 56.9882 105.591 56.9882C103.106 56.9882 101.062 55.0095 101.062 52.536C101.062 50.3374 102.609 48.5235 104.708 48.1388V42.0925H106.475Z" fill="#FF7268"/>
</svg>
