<svg width="12" height="11" viewBox="0 0 12 11" fill="none" xmlns="http://www.w3.org/2000/svg">
<path d="M5.11052 0.731351C5.48249 0.00731277 6.51751 0.00731277 6.88948 0.731351L7.87571 2.65101C8.02091 2.93364 8.29178 3.13045 8.60545 3.1812L10.7359 3.52595C11.5395 3.65598 11.8593 4.64034 11.2856 5.21784L9.7647 6.74901C9.54077 6.97444 9.43731 7.29288 9.48596 7.60687L9.81644 9.7396C9.94108 10.544 9.10374 11.1524 8.37723 10.7852L6.451 9.8119C6.16741 9.66859 5.83259 9.66859 5.549 9.8119L3.62277 10.7852C2.89626 11.1524 2.05892 10.544 2.18356 9.7396L2.51404 7.60687C2.56269 7.29288 2.45923 6.97444 2.2353 6.74901L0.714352 5.21784C0.140697 4.64034 0.460534 3.65598 1.26408 3.52595L3.39455 3.1812C3.70822 3.13045 3.97909 2.93364 4.12429 2.65101L5.11052 0.731351Z" fill="#9679F5"/>
</svg>
