<svg width="206" height="224" viewBox="0 0 206 224" fill="none" xmlns="http://www.w3.org/2000/svg">
<g clip-path="url(#clip0)">
<path d="M116.51 152.455C116.51 152.455 112.195 116.963 95.1221 121.739C33.7724 138.783 -4.68845 51.786 87.3361 11.9867C119.324 -1.87287 181.612 -14.1404 197.934 38.3947C206.752 66.7693 182.832 89.4315 167.822 92.8964C140.994 99.077 127.016 113.405 126.172 152.736L116.51 152.455Z" fill="#F8F9FF"/>
<path d="M149.903 80.7224C168.243 80.7224 183.111 65.8804 183.111 47.5719C183.111 29.2634 168.243 14.4214 149.903 14.4214C131.563 14.4214 116.695 29.2634 116.695 47.5719C116.695 65.8804 131.563 80.7224 149.903 80.7224Z" fill="#B9C8FC"/>
<path d="M82.738 75.853C93.0996 75.853 101.499 67.4677 101.499 57.1239C101.499 46.7801 93.0996 38.3948 82.738 38.3948C72.3763 38.3948 63.9766 46.7801 63.9766 57.1239C63.9766 67.4677 72.3763 75.853 82.738 75.853Z" fill="#B9C8FC"/>
<path d="M110.037 111.719C118.637 111.719 125.609 104.759 125.609 96.1741C125.609 87.5887 118.637 80.6289 110.037 80.6289C101.437 80.6289 94.4648 87.5887 94.4648 96.1741C94.4648 104.759 101.437 111.719 110.037 111.719Z" fill="#B9C8FC"/>
<path d="M163.976 47.291L162.85 45.6991C163.413 45.4181 164.163 43.9198 163.319 43.1706C162.85 42.7024 161.912 43.077 161.537 43.2643L159.848 37.6455C159.661 36.99 159.192 36.5218 158.535 36.4282C156.94 36.0536 153.563 35.4917 149.905 35.4917C146.246 35.4917 142.869 36.0536 141.275 36.4282C140.618 36.5218 140.149 36.99 139.961 37.6455L138.273 43.2643C137.897 43.077 136.959 42.796 136.49 43.1706C135.646 43.9198 136.49 45.5118 136.959 45.6991L135.834 47.291C135.646 47.572 135.458 47.9465 135.552 48.3211C135.646 53.7526 136.397 57.4984 136.772 58.9031C136.866 59.2777 137.241 59.5586 137.616 59.5586H140.993C141.368 59.5586 141.744 59.2777 141.837 58.9031L142.213 57.6857C142.306 57.3111 142.682 57.0302 143.057 57.0302H156.753C157.128 57.0302 157.503 57.3111 157.597 57.6857L157.972 58.9031C158.066 59.2777 158.441 59.5586 158.816 59.5586H162.193C162.569 59.5586 162.944 59.2777 163.038 58.9031C163.413 57.4984 164.257 53.6589 164.257 48.3211C164.257 47.9465 164.163 47.572 163.976 47.291ZM140.336 43.2643L141.931 38.3947C142.025 38.1138 142.213 38.0201 142.4 37.9265C143.338 37.7392 146.152 37.1773 149.905 37.1773C153.657 37.1773 156.377 37.7392 157.315 37.9265C157.597 38.0201 157.785 38.2074 157.785 38.3947L159.379 43.2643C159.567 43.7325 159.192 44.2007 158.723 44.2007H140.993C140.524 44.2007 140.243 43.7325 140.336 43.2643ZM143.057 49.6322L142.119 51.1305C142.025 51.3178 141.837 51.4114 141.556 51.4114H138.085C137.804 51.4114 137.522 51.2241 137.522 50.9432C137.335 50.2877 137.147 49.0703 137.335 48.1338C137.428 47.7593 137.71 47.572 138.085 47.6656L142.682 48.6957C143.057 48.7894 143.244 49.2576 143.057 49.6322ZM152.625 53.1907L150.561 53.4716C150.092 53.5653 149.717 53.5653 149.248 53.4716L147.184 53.1907C146.809 53.1907 146.528 52.9098 146.528 52.5352C146.528 52.0669 146.809 51.6924 147.278 51.6924H149.905H152.531C153 51.6924 153.282 52.0669 153.282 52.5352C153.282 52.9098 153 53.1907 152.625 53.1907ZM162.287 50.9432C162.193 51.2241 162.006 51.4114 161.724 51.4114H158.254C158.066 51.4114 157.878 51.3178 157.691 51.1305L156.753 49.6322C156.565 49.2576 156.753 48.7894 157.128 48.6957L161.724 47.6656C162.1 47.572 162.381 47.7593 162.475 48.1338C162.662 49.0703 162.381 50.2877 162.287 50.9432Z" fill="white"/>
<path d="M114.164 94.4882C113.977 93.9263 113.883 92.8962 112.288 92.8962C110.6 92.8962 110.131 92.709 109.193 94.1136C108.348 95.2374 106.285 94.02 104.596 93.5518C104.221 93.4581 103.846 93.6454 103.564 93.9263L103.189 94.5819C103.095 94.7692 103.095 95.0501 103.377 95.1437L104.971 95.4247C104.971 95.4247 107.316 95.7993 107.41 98.6086C107.41 98.9832 107.785 99.3578 108.254 99.2641L110.318 98.9832C110.6 98.9832 110.881 98.7959 110.975 98.515L113.977 94.9564C114.164 94.8628 114.258 94.6755 114.164 94.4882Z" fill="white"/>
<path d="M115.853 95.5183C114.259 95.5183 112.945 96.8293 112.945 98.4213C112.945 100.013 114.259 101.324 115.853 101.324C117.448 101.324 118.761 100.013 118.761 98.4213C118.761 96.8293 117.448 95.5183 115.853 95.5183ZM115.853 99.7324C115.103 99.7324 114.54 99.1705 114.54 98.4213C114.54 97.6722 115.103 97.1103 115.853 97.1103C116.604 97.1103 117.167 97.6722 117.167 98.4213C117.167 99.1705 116.604 99.7324 115.853 99.7324Z" fill="white"/>
<path d="M103.845 96.0803C102.438 96.0803 101.219 97.2977 101.219 98.7024C101.219 100.107 102.438 101.324 103.845 101.324C105.252 101.324 106.472 100.107 106.472 98.7024C106.472 97.2977 105.252 96.0803 103.845 96.0803ZM103.845 99.5452C103.376 99.5452 103.001 99.1706 103.001 98.7024C103.001 98.2342 103.376 97.8596 103.845 97.8596C104.314 97.8596 104.69 98.2342 104.69 98.7024C104.69 99.1706 104.314 99.5452 103.845 99.5452Z" fill="white"/>
<path d="M112.852 91.8662L113.602 92.2408C113.79 92.3345 113.884 92.4281 113.884 92.6154C114.071 93.0836 114.634 94.1137 114.728 94.4883C114.822 94.5819 114.915 94.6756 115.009 94.6756C115.385 94.6756 116.041 94.7692 116.135 94.6756C116.323 94.4883 116.51 92.4281 116.323 92.4281C116.041 92.4281 114.915 92.5217 114.915 92.5217L114.54 92.0535C114.353 91.7726 114.071 91.5853 113.696 91.398L113.133 91.1171C112.946 91.0234 112.758 91.1171 112.57 91.3043C112.57 91.4916 112.664 91.7726 112.852 91.8662Z" fill="white"/>
<path d="M86.9593 50.7559C84.3327 50.3813 82.738 52.7225 82.738 52.7225C82.738 52.7225 81.1433 50.3813 78.5167 50.7559C75.0459 51.3178 73.9202 54.689 75.1397 57.873C76.453 61.2442 80.7681 63.7726 82.269 64.5218C82.6442 64.7091 83.0194 64.7091 83.3009 64.5218C84.8018 63.7726 89.1169 61.2442 90.4302 57.873C91.6497 54.689 90.4302 51.3178 86.9593 50.7559ZM86.9593 58.0603H85.0832L83.6761 60.776C83.5823 60.8696 83.4885 60.9633 83.3947 60.9633C83.3009 60.9633 83.1132 60.8696 83.1132 60.776L81.8938 56.281L81.1433 57.9666C81.0495 58.0603 80.9557 58.1539 80.8619 58.1539H78.4229C78.2353 58.1539 78.1415 58.0603 78.1415 57.873C78.1415 57.6857 78.2353 57.592 78.4229 57.592H80.6743L81.6123 55.3446C81.7061 55.2509 81.8 55.1573 81.8938 55.1573C81.9876 55.1573 82.1752 55.2509 82.1752 55.3446L83.3947 59.9332L84.5204 57.7793C84.6142 57.6857 84.708 57.592 84.8018 57.592H86.8655C87.0531 57.592 87.1469 57.6857 87.1469 57.873C87.1469 58.0603 87.1469 58.0603 86.9593 58.0603Z" fill="white"/>
<path d="M155.719 119.585C159.449 119.585 162.473 116.567 162.473 112.843C162.473 109.119 159.449 106.1 155.719 106.1C151.989 106.1 148.965 109.119 148.965 112.843C148.965 116.567 151.989 119.585 155.719 119.585Z" fill="#F8F9FF"/>
<path d="M36.3969 39.6121C38.5729 39.6121 40.3368 37.8512 40.3368 35.679C40.3368 33.5068 38.5729 31.7458 36.3969 31.7458C34.221 31.7458 32.457 33.5068 32.457 35.679C32.457 37.8512 34.221 39.6121 36.3969 39.6121Z" fill="#F8F9FF"/>
<path d="M12.3828 223.906V195.157H45.2152V223.906" fill="#4F34D2"/>
<path d="M41.368 223.906H40.8051V195.438H8.53556V223.906H7.87891V194.876H41.368V223.906Z" fill="white"/>
<path d="M202.622 137.94C202.622 137.94 196.337 134.288 176.075 133.632C155.813 132.977 148.214 139.157 147.089 141.03C145.963 142.997 141.273 168.843 139.959 169.592C138.646 170.435 108.909 168.281 106.47 169.592C104.031 170.903 133.674 198.716 139.959 199.84C146.245 200.963 166.788 187.572 166.788 187.572C166.788 187.572 184.987 192.535 189.771 188.04C194.555 183.545 202.622 137.94 202.622 137.94Z" fill="#4F34D2"/>
<path d="M91.8359 199.278L143.617 223.438L176.544 223.532C179.921 222.595 182.829 217.726 185.549 211.545C185.549 211.545 170.54 205.927 171.197 191.037L145.869 184.482C145.869 184.482 138.552 199.652 128.89 201.9C119.228 204.241 91.8359 199.278 91.8359 199.278Z" fill="#23167F"/>
<path d="M172.043 191.224C172.043 191.224 172.7 205.271 185.551 210.328C185.551 210.328 202.343 176.241 205.907 144.12C205.907 144.12 192.305 185.605 186.114 189.07C179.923 192.722 172.043 191.224 172.043 191.224Z" fill="#23167F"/>
<path d="M135.363 183.92C135.363 183.92 142.68 178.488 148.965 169.124L142.774 164.441C142.774 164.441 153.749 149.552 168.102 148.241C182.454 146.93 186.769 154.421 188.833 161.538C190.897 168.656 185.456 178.863 185.456 178.863L169.884 186.261L143.055 187.478L135.363 183.92Z" fill="#FFA800"/>
<path d="M129.734 161.726L121.76 142.341C121.572 141.779 121.01 141.405 120.353 141.405L113.411 141.218C112.942 141.218 112.567 141.311 112.192 141.592C111.91 141.779 111.723 141.967 111.723 141.967L120.353 161.913C120.541 162.381 121.01 162.756 121.572 162.85L128.045 163.786C129.265 164.067 130.203 162.85 129.734 161.726Z" fill="#6CCAFF"/>
<path d="M143.902 165.191C143.902 165.191 131.613 179.987 125.797 181.953L136.678 184.482L149.061 169.03L143.902 165.191Z" fill="#FE8980"/>
<path d="M128.797 162.288L120.823 142.903C120.636 142.341 120.073 141.966 119.416 141.966L112.474 141.686C111.818 141.686 111.349 142.341 111.63 142.903L119.416 162.475C119.604 162.943 120.073 163.318 120.636 163.411L127.108 164.348C128.328 164.535 129.266 163.411 128.797 162.288Z" fill="#4F34D2"/>
<path d="M136.77 184.575L136.582 184.388L155.906 160.321L156.094 160.508L136.77 184.575Z" fill="white"/>
<path d="M142.213 185.418L126.265 165.846L119.23 161.632C119.23 161.632 115.478 154.89 116.228 154.234C116.979 153.579 126.078 155.545 126.078 155.545C126.078 155.545 125.984 149.177 127.204 148.896C128.423 148.615 129.455 155.264 130.018 155.826C130.581 156.388 159.379 184.201 159.379 184.201L142.213 185.418Z" fill="#FF7268"/>
<path d="M205.812 144.12L194.649 183.452C192.867 189.819 186.394 193.846 179.922 192.629L151.686 187.478C149.153 187.01 146.62 188.227 145.401 190.475C138.177 203.679 122.418 209.766 108.253 204.896L91.9306 199.278C90.2421 198.716 89.3041 196.749 90.0545 195.064L90.6173 193.846L142.305 185.324C143.337 183.077 145.682 181.86 148.121 182.234L180.953 187.572C184.706 188.227 188.364 185.886 189.49 182.234L202.717 137.846C205.156 138.876 206.563 141.592 205.812 144.12Z" fill="#351CB0"/>
<path d="M32.7383 182.515L74.3886 152.736C78.7037 149.645 84.6135 149.739 88.8348 153.11L127.202 183.451H97.5589L78.1408 166.876L55.9086 178.769L32.7383 182.515Z" fill="#3EB753"/>
<path d="M17.2617 186.448L76.2663 171.559L142.213 185.324C137.053 198.435 122.419 205.084 109.099 200.401L77.4858 189.258L22.4211 197.405L17.2617 186.448Z" fill="#74CE63"/>
<path d="M173.074 173.244L166.508 185.324L180.86 187.666C180.86 187.666 184.144 182.609 185.457 178.769L173.074 173.244Z" fill="#FF7268"/>
<path d="M177.482 149.833C177.482 149.833 177.482 129.418 174.856 125.485C172.229 121.552 160.409 125.11 161.723 133.538C163.036 141.967 168.195 144.12 171.009 142.809C171.009 142.809 169.696 149.739 170.165 151.425C170.634 153.11 174.48 153.672 177.482 149.833Z" fill="#FF7268"/>
<path d="M167.258 135.692C167.569 135.692 167.821 135.441 167.821 135.13C167.821 134.82 167.569 134.569 167.258 134.569C166.947 134.569 166.695 134.82 166.695 135.13C166.695 135.441 166.947 135.692 167.258 135.692Z" fill="#151619"/>
<path d="M163.692 137.003C163.951 137.003 164.161 136.794 164.161 136.535C164.161 136.277 163.951 136.067 163.692 136.067C163.433 136.067 163.223 136.277 163.223 136.535C163.223 136.794 163.433 137.003 163.692 137.003Z" fill="#151619"/>
<path d="M165.571 138.221L165.195 135.505H165.477L165.852 137.846L166.321 137.753L166.415 138.034L165.571 138.221Z" fill="#151619"/>
<path d="M170.914 142.809C170.914 142.809 172.415 142.154 173.541 140.843L170.445 145.806L170.914 142.809Z" fill="#151619"/>
<path d="M182.173 131.759C182.924 131.01 183.487 130.074 183.674 128.856C183.956 126.983 183.111 125.204 181.61 124.174C181.798 123.987 181.986 123.799 181.986 123.425C182.079 122.769 181.61 122.207 181.048 122.207C180.672 122.114 180.297 122.301 180.016 122.582C179.547 122.114 179.078 121.646 178.515 121.365C177.952 118.555 175.701 116.308 172.699 115.933C170.541 115.652 168.477 116.401 166.977 117.712C164.631 117.432 162.474 118.93 162.005 121.177C161.442 121.365 160.973 121.833 160.879 122.488C160.785 122.863 160.879 123.144 161.067 123.425C160.129 123.893 159.472 124.736 159.191 125.86C158.722 126.141 158.346 126.702 158.253 127.264C158.159 128.107 158.534 128.856 159.191 129.231C159.097 129.418 159.097 129.512 159.003 129.699C158.815 130.823 159.66 131.853 160.692 131.947C161.723 132.134 162.755 131.385 162.943 130.355C163.224 130.355 163.506 130.261 163.787 130.167C164.256 130.916 165.007 131.478 165.945 131.572C166.883 131.666 167.821 131.385 168.478 130.823C169.04 131.197 169.697 131.572 170.447 131.666C170.447 131.759 170.354 131.947 170.354 132.04C170.166 133.07 170.916 134.007 171.948 134.1C172.324 134.194 172.605 134.1 172.886 134.007C173.262 134.85 174.106 135.505 175.044 135.786C174.95 135.973 174.856 136.161 174.856 136.348C174.763 137.378 175.419 138.221 176.357 138.408C177.108 138.502 177.764 138.127 178.14 137.565C178.421 137.659 178.702 137.846 178.984 137.846C180.297 138.034 181.423 137.191 181.704 135.973C182.361 135.505 182.736 134.85 182.924 134.007C183.111 133.258 182.736 132.415 182.173 131.759Z" fill="#151619"/>
<path d="M175.398 168.455L166.41 185.215L166.658 185.347L175.646 168.588L175.398 168.455Z" fill="#151619"/>
<path d="M142.961 164.535L142.773 164.348C142.867 164.16 155.531 148.241 170.165 148.053V148.334C155.625 148.615 143.149 164.348 142.961 164.535Z" fill="white"/>
<path d="M124.669 181.485L109.473 169.218H109.848L122.23 179.331L124.669 181.485Z" fill="white"/>
<path d="M109.471 200.589L77.4826 189.445L22.418 197.592V197.311L77.4826 189.07L77.5764 189.164L111.816 201.244L109.471 200.589Z" fill="#151619"/>
<path d="M78.1428 166.876L77.2986 166.127L61.6328 175.304L62.9461 174.93L78.1428 166.876Z" fill="#151619"/>
<path d="M126.17 155.733H125.983C117.54 153.672 116.32 154.421 116.32 154.421L116.133 154.234C116.227 154.141 117.352 153.391 125.889 155.452L125.983 151.893H126.264L126.17 155.733Z" fill="#151619"/>
<path d="M121.292 157.512L116.602 156.482L116.695 156.201L121.292 157.231V157.512Z" fill="#151619"/>
<path d="M122.511 160.228L117.82 159.197L117.914 158.917L122.604 159.947L122.511 160.228Z" fill="#151619"/>
<path d="M118.081 148.583C118.784 148.144 118.862 147.006 118.257 146.042C117.651 145.078 116.591 144.653 115.889 145.093C115.186 145.532 115.108 146.67 115.713 147.634C116.319 148.598 117.379 149.023 118.081 148.583Z" fill="white"/>
<path d="M180.858 187.853L148.026 182.515C147.838 182.515 144.18 181.86 142.397 185.512L142.304 185.605H142.21L86.77 174.087L86.0195 173.712L142.116 185.324C143.992 181.579 148.026 182.234 148.026 182.234L180.858 187.572V187.853Z" fill="white"/>
<path d="M17.2605 186.448L1.50089 184.575C0.938051 184.482 0.469017 184.763 0.187596 185.231C-0.187632 185.886 0.0937891 186.729 0.750437 187.01L15.5719 195.064L17.3543 194.034L20.9189 193.94L17.2605 186.448Z" fill="#351CB0"/>
<path d="M17.2588 186.636L2.71875 184.95V184.669L17.2588 186.355V186.636Z" fill="white"/>
<path d="M197.838 223.625H90.8984V224H197.838V223.625Z" fill="#23167F"/>
<path d="M79.828 223.625H2.71875V224H79.828V223.625Z" fill="#23167F"/>
<path d="M166.227 140.468C166.039 140.468 165.945 140.468 165.945 140.468L166.039 140.094C166.133 140.094 167.821 140.375 168.76 138.314L169.041 138.502C168.197 140.281 166.79 140.468 166.227 140.468Z" fill="#151619"/>
</g>
<defs>
<clipPath id="clip0">
<rect width="206" height="224" fill="white"/>
</clipPath>
</defs>
</svg>
