<svg width="480" height="337" viewBox="0 0 480 337" fill="none" xmlns="http://www.w3.org/2000/svg">
<path d="M114.125 94.2119C114.125 94.2119 118.623 54.837 189.099 69.3523C247.245 81.365 247.579 0.946777 306.891 0.946777C355.041 0.946777 391.529 42.8243 395.361 132.919C399.692 234.026 479.998 236.529 479.998 336.968H142.115C142.115 336.968 160.609 289.918 219.089 285.747C273.903 281.91 266.072 230.022 230.751 222.681C174.771 211.169 164.441 182.972 164.441 182.972L114.125 94.2119Z" fill="#4353DB"/>
<path d="M184.936 264.392L195.599 337.302H67.9766L77.3067 262.223L184.936 264.392Z" fill="#47AFFA"/>
<path d="M32.1597 185.809L60.8164 105.724C63.3155 98.7166 69.6466 93.5444 76.9774 92.5434L141.455 83.7007C155.45 81.6986 169.612 87.2044 178.442 98.216L225.093 155.276L271.243 90.875L311.063 119.739L241.254 203.994C233.256 213.671 218.595 214.672 209.265 206.163L178.442 177.967L191.771 264.225L106.532 262.904L73.3208 282.91L34.4922 206.998C30.4936 200.824 29.4939 192.983 32.1597 185.809Z" fill="#74CE63"/>
<path d="M96.4688 57.3398L107.965 88.3726L98.8013 89.7073C98.8013 89.7073 104.966 102.054 114.296 104.556C137.788 110.73 131.623 85.2025 131.623 85.2025L126.292 85.8699L123.459 74.3577L135.289 70.854C137.454 70.1867 138.454 68.0177 137.788 66.0156L134.122 55.8382L138.621 53.5024C139.287 53.1687 139.454 52.1676 138.954 51.5003L121.293 32.1465L96.4688 57.3398Z" fill="#351CB0"/>
<path d="M130.459 63.6795C128.626 63.6795 126.46 63.179 123.961 61.5105L124.961 60.1758C129.959 63.6795 133.624 61.5105 133.791 61.3437L134.624 62.6784C134.457 62.8453 132.791 63.6795 130.459 63.6795Z" fill="white"/>
<path d="M122.626 49.9987C123.638 49.9987 124.458 49.177 124.458 48.1634C124.458 47.1498 123.638 46.3281 122.626 46.3281C121.613 46.3281 120.793 47.1498 120.793 48.1634C120.793 49.177 121.613 49.9987 122.626 49.9987Z" fill="white"/>
<path d="M73.6936 284.205L72.694 282.871L106.016 257.677L71.0273 195.091V194.757L86.4802 146.617L88.1463 146.951L72.6934 194.757L108.348 258.178L73.6936 284.205Z" fill="#151619"/>
<path d="M271.242 90.8749L275.241 87.3712C278.24 84.7017 282.405 83.8675 286.237 84.7017L308.563 90.0407L335.886 81.8654C340.218 80.5307 344.883 82.3659 347.216 86.3702L347.549 87.0375L316.893 108.894C314.394 110.729 311.395 111.397 308.396 111.23L297.733 110.229L271.242 90.8749Z" fill="#351CB0"/>
<path d="M106.185 259.778L109.683 289.977L80.86 301.989L75.1953 283.136L106.185 259.778Z" fill="#351CB0"/>
<path d="M175.282 149.528L173.641 149.813L179.278 182.194L180.92 181.908L175.282 149.528Z" fill="white"/>
<path d="M14.9959 17.2975C14.9959 17.2975 8.49817 17.2975 5.166 24.3049C1.83382 31.3123 8.66478 36.3176 8.66478 36.3176C8.66478 36.3176 5.99904 45.1603 14.9959 50.6661C23.9928 56.1719 30.1573 49.3314 30.1573 49.3314C30.1573 49.3314 32.6565 54.3366 39.4874 52.6682C46.3184 50.9998 36.3219 11.6249 26.6585 6.6196C16.9952 1.61431 14.9959 17.2975 14.9959 17.2975Z" fill="#FF7268"/>
<path d="M33.4908 53.8358C29.8255 53.8358 27.6595 51.8336 26.8265 50.4989C24.8272 52.1673 18.9959 56.0047 11.4985 51.3331C3.33464 46.3278 4.16768 38.8199 4.66751 36.651C3.16803 35.3162 -1.83024 30.3109 1.33533 23.9709C4.16768 17.9646 9.33256 16.7967 11.1653 16.463C11.4985 14.294 12.998 7.62031 17.1632 5.45136C19.1625 4.4503 21.495 4.4503 23.9941 5.78504C32.4912 10.123 40.655 37.9857 39.3222 48.6636C38.9889 51.3331 38.1559 53.0015 36.6564 53.3352C35.3235 53.8358 34.3239 53.8358 33.4908 53.8358ZM26.9931 47.8294L27.4929 48.9973C27.6595 49.1642 29.8255 53.5021 35.8234 51.8336C36.4898 51.6668 37.1562 50.4989 37.3228 48.6636C37.8227 43.8252 36.3232 34.482 33.3242 25.6393C30.1587 15.9625 26.1601 9.1219 22.8279 7.45347C20.8286 6.45242 19.1625 6.28557 17.663 7.11979C13.4978 9.28874 12.4981 17.2972 12.4981 17.464L12.3315 18.1314H11.6651C11.4985 18.1314 5.66716 18.2983 2.50159 24.6383C-0.497368 30.9783 5.50055 35.4831 5.83377 35.6499L6.3336 35.9836L6.16699 36.4841C6.00038 36.8178 3.83446 44.8262 12.1649 49.8315C20.4954 54.8368 25.9934 48.8305 26.1601 48.4968L26.9931 47.8294Z" fill="#151619"/>
<path d="M6.16609 36.6511L4.5 36.1506C4.5 35.9837 6.3327 30.6448 12.3306 27.6416L12.9971 29.1432C7.83218 31.8127 6.16609 36.6511 6.16609 36.6511Z" fill="#151619"/>
<path d="M14.8301 32.647C9.66527 28.3091 12.4976 23.9712 12.4976 23.9712L13.8305 24.9722C13.8305 25.1391 11.8312 28.1423 15.8298 31.4791L14.8301 32.647Z" fill="#151619"/>
<path d="M31.6567 45.1602C31.6567 44.9933 30.3238 40.4885 21.8268 41.3228L21.6602 39.6543C31.6567 38.6533 33.1562 44.4928 33.3228 44.8265L31.6567 45.1602L32.4897 44.9933L31.6567 45.1602Z" fill="#151619"/>
<path d="M20.664 44.9935C20.664 44.8266 19.6643 41.3229 21.6636 37.1519L23.1631 37.8192C21.497 41.3229 22.1635 44.3261 22.1635 44.4929L20.664 44.9935Z" fill="#151619"/>
<path d="M21.4974 20.4674C21.4974 20.4674 20.1645 13.2931 28.1617 11.291L28.4949 12.9594C22.1638 14.6279 22.9968 19.9668 23.1635 20.1337L21.4974 20.4674Z" fill="#151619"/>
<path d="M27.3226 23.9709C25.4899 22.1356 23.6572 21.1346 22.1578 21.1346C20.8249 21.1346 20.1584 21.802 20.1584 21.802L18.9922 20.6341C18.9922 20.6341 20.1584 19.2993 22.1578 19.2993C24.1571 19.2993 26.323 20.4672 28.4889 22.6362L27.3226 23.9709Z" fill="#151619"/>
<path d="M110.545 289.787L77.7031 302.811L78.3166 304.362L111.158 291.338L110.545 289.787Z" fill="white"/>
<path d="M140.786 336.968L138.953 303.933L151.282 291.42L152.448 292.588L140.619 304.601L142.452 336.801L140.786 336.968Z" fill="white"/>
<path d="M330.993 63.601H289.148C280.058 63.601 272.555 56.1455 272.555 47.113C272.555 38.0804 280.058 30.625 289.148 30.625H330.993C340.084 30.625 347.587 38.0804 347.587 47.113C347.731 56.1455 340.228 63.601 330.993 63.601Z" fill="white"/>
<path d="M330.481 59.2043C336.88 59.2043 342.067 54.037 342.067 47.6627C342.067 41.2885 336.88 36.1211 330.481 36.1211C324.082 36.1211 318.895 41.2885 318.895 47.6627C318.895 54.037 324.082 59.2043 330.481 59.2043Z" fill="#5A68E7"/>
<path d="M330.487 53.7084C333.839 53.7084 336.556 51.0017 336.556 47.6628C336.556 44.3239 333.839 41.6172 330.487 41.6172C327.135 41.6172 324.418 44.3239 324.418 47.6628C324.418 51.0017 327.135 53.7084 330.487 53.7084Z" fill="#74CE63"/>
<path d="M70.6472 50.1653C70.4806 50.1653 70.3139 50.1653 70.1473 50.1653C68.148 49.8316 66.8152 47.6626 67.1484 45.16C67.315 43.6584 67.8148 42.3237 68.8145 41.1558C66.9818 39.9879 64.1494 38.82 59.4844 38.4863L59.651 36.8179C64.8159 37.1516 67.9814 38.4863 69.9807 39.9879C71.4802 38.82 73.3129 37.9858 75.6454 38.1526C82.9762 38.3195 89.9738 48.8305 90.307 49.3311L88.9741 50.3321C88.9741 50.1653 82.1432 39.9879 75.6454 39.9879C73.8127 39.9879 72.3133 40.4884 71.3136 41.3226C72.3133 42.3237 72.8131 43.3247 73.1463 43.8253C73.9793 45.8274 73.9793 47.9963 72.8131 49.4979C72.1466 49.8316 71.4802 50.1653 70.6472 50.1653ZM69.9807 41.99C69.1477 42.991 68.8145 44.1589 68.6479 45.16C68.4813 46.4947 68.8145 48.1632 70.314 48.33C70.8138 48.33 71.147 48.33 71.4802 47.8295C71.98 47.1621 72.3133 45.6605 71.4802 43.9921C71.3136 43.6584 70.8138 42.8242 69.9807 41.99Z" fill="#151619"/>
<path d="M79.0825 13.1734L77.8945 14.3433L100.208 37.0644L101.396 35.8945L79.0825 13.1734Z" fill="#151619"/>
<path d="M101.608 17.0462L100.238 17.9966L105.078 24.9901L106.448 24.0398L101.608 17.0462Z" fill="#151619"/>
<path d="M421.024 251.378C445.316 251.378 465.008 231.657 465.008 207.331C465.008 183.005 445.316 163.285 421.024 163.285C396.732 163.285 377.039 183.005 377.039 207.331C377.039 231.657 396.732 251.378 421.024 251.378Z" fill="#351CB0"/>
<path d="M301.732 257.718C320.135 257.718 335.054 242.778 335.054 224.349C335.054 205.921 320.135 190.981 301.732 190.981C283.329 190.981 268.41 205.921 268.41 224.349C268.41 242.778 283.329 257.718 301.732 257.718Z" fill="#351CB0"/>
<path d="M350.216 321.785C365.49 321.785 377.873 309.386 377.873 294.089C377.873 278.793 365.49 266.394 350.216 266.394C334.941 266.394 322.559 278.793 322.559 294.089C322.559 309.386 334.941 321.785 350.216 321.785Z" fill="#351CB0"/>
<path d="M439.685 206.998L438.186 204.829C438.852 204.495 439.852 202.493 438.852 201.492C438.186 200.991 437.019 201.325 436.519 201.659L434.354 194.151C434.187 193.317 433.52 192.649 432.687 192.482C430.522 191.982 426.19 191.314 421.358 191.314C416.526 191.314 412.028 192.149 410.029 192.482C409.196 192.649 408.529 193.317 408.363 194.151L406.197 201.659C405.697 201.492 404.364 200.991 403.864 201.492C402.864 202.493 403.864 204.495 404.531 204.829L403.031 206.998C402.698 207.331 402.531 207.832 402.531 208.332C402.531 215.507 403.698 220.512 404.197 222.347C404.364 222.848 404.864 223.181 405.364 223.181H409.862C410.362 223.181 410.862 222.848 411.028 222.347L411.528 220.679C411.695 220.178 412.195 219.845 412.694 219.845H430.855C431.355 219.845 431.854 220.178 432.021 220.679L432.521 222.347C432.687 222.848 433.187 223.181 433.687 223.181H438.186C438.685 223.181 439.185 222.848 439.352 222.347C439.852 220.345 440.851 215.507 441.018 208.332C440.018 207.832 439.852 207.331 439.685 206.998ZM408.363 201.659L410.362 195.152C410.528 194.818 410.695 194.651 411.028 194.484C412.361 194.151 415.86 193.483 420.858 193.483C425.856 193.483 429.355 194.151 430.688 194.484C431.021 194.484 431.188 194.818 431.355 195.152L433.52 201.659C433.687 202.326 433.187 202.827 432.687 202.827H409.196C408.696 202.827 408.196 202.159 408.363 201.659ZM412.028 210.001L410.862 212.003C410.695 212.17 410.528 212.337 410.195 212.337H405.53C405.197 212.337 404.864 212.003 404.697 211.669C404.531 210.835 404.197 209.167 404.364 207.999C404.364 207.498 404.864 207.331 405.364 207.331L411.528 208.666C412.028 209 412.361 209.5 412.028 210.001ZM424.69 214.839L421.858 215.173C421.358 215.173 420.692 215.173 420.192 215.173L417.359 214.839C416.86 214.839 416.526 214.339 416.526 214.005C416.526 213.505 416.86 213.004 417.526 213.004H421.025H424.524C425.023 213.004 425.523 213.505 425.523 214.005C425.523 214.339 425.19 214.839 424.69 214.839ZM437.352 211.836C437.352 212.17 437.019 212.503 436.519 212.503H431.854C431.521 212.503 431.355 212.337 431.188 212.17L430.022 210.168C429.688 209.667 430.022 209 430.522 209L436.686 207.665C437.186 207.498 437.519 207.832 437.686 208.332C437.852 209.333 437.686 211.002 437.352 211.836Z" fill="#2871EA"/>
<path d="M357.546 290.92C357.213 289.918 357.046 288.083 354.214 288.083C351.215 288.083 350.382 287.749 348.716 290.252C347.216 292.254 343.551 290.085 340.552 289.251C339.885 289.084 339.219 289.418 338.719 289.918L338.053 290.92C337.886 291.253 337.886 291.754 338.386 291.921L341.218 292.421C341.218 292.421 345.384 293.088 345.55 298.094C345.55 298.761 346.217 299.429 347.05 299.262L350.715 298.761C351.215 298.761 351.715 298.428 351.881 297.927L357.213 291.587C357.546 291.754 357.713 291.253 357.546 290.92Z" fill="#2871EA"/>
<path d="M360.548 292.754C357.715 292.754 355.383 295.09 355.383 297.926C355.383 300.763 357.715 303.099 360.548 303.099C363.38 303.099 365.713 300.763 365.713 297.926C365.713 295.09 363.547 292.754 360.548 292.754ZM360.548 300.262C359.215 300.262 358.215 299.261 358.215 297.926C358.215 296.592 359.215 295.591 360.548 295.591C361.881 295.591 362.88 296.592 362.88 297.926C362.88 299.261 361.881 300.262 360.548 300.262Z" fill="#2871EA"/>
<path d="M339.22 293.756C336.721 293.756 334.555 295.925 334.555 298.427C334.555 300.93 336.721 303.099 339.22 303.099C341.719 303.099 343.885 300.93 343.885 298.427C343.885 295.925 341.886 293.756 339.22 293.756ZM339.22 299.929C338.387 299.929 337.72 299.262 337.72 298.427C337.72 297.593 338.387 296.926 339.22 296.926C340.053 296.926 340.719 297.593 340.719 298.427C340.719 299.262 340.053 299.929 339.22 299.929Z" fill="#2871EA"/>
<path d="M355.215 286.248L356.548 286.915C356.881 287.082 357.047 287.249 357.047 287.583C357.381 288.417 358.38 290.252 358.547 290.919C358.713 291.086 358.88 291.253 359.047 291.253C359.713 291.253 360.879 291.42 361.046 291.253C361.379 290.919 361.712 287.249 361.379 287.249C360.879 287.249 358.88 287.416 358.88 287.416L358.214 286.582C357.88 286.081 357.381 285.747 356.714 285.414L355.715 284.913C355.381 284.746 355.048 284.913 354.715 285.247C354.715 285.58 354.881 286.081 355.215 286.248Z" fill="#2871EA"/>
<path d="M309.228 213.004C304.563 212.337 301.731 216.508 301.731 216.508C301.731 216.508 298.898 212.337 294.233 213.004C288.069 214.005 286.069 220.011 288.235 225.684C290.568 231.69 298.232 236.195 300.898 237.53C301.564 237.863 302.23 237.863 302.73 237.53C305.396 236.195 313.06 231.69 315.393 225.684C317.558 220.011 315.559 214.005 309.228 213.004ZM309.395 226.018H306.062L303.563 230.856C303.397 231.023 303.23 231.19 303.063 231.19C302.897 231.19 302.564 231.023 302.564 230.856L300.398 222.848L299.065 225.851C298.898 226.018 298.732 226.185 298.565 226.185H294.233C293.9 226.185 293.733 226.018 293.733 225.684C293.733 225.35 293.9 225.183 294.233 225.183H298.232L299.898 221.179C300.065 221.012 300.231 220.846 300.398 220.846C300.564 220.846 300.898 221.012 300.898 221.179L303.063 229.355L305.063 225.517C305.229 225.35 305.396 225.183 305.563 225.183H309.228C309.561 225.183 309.728 225.35 309.728 225.684C309.894 225.851 309.561 226.018 309.395 226.018Z" fill="#2871EA"/>
</svg>
