<svg width="249" height="253" viewBox="0 0 249 253" fill="none" xmlns="http://www.w3.org/2000/svg">
<path d="M172.275 126.404C180.377 128.126 198.1 133.798 209.342 113.441C220.584 93.0844 198.809 75.1584 193.543 60.1695C188.277 45.1806 203.468 34.9517 195.467 17.5321C185.542 -4.34363 155.463 -10.1164 112.42 25.938C78.9992 53.8904 59.6554 37.99 37.7797 51.9661C16.7142 65.4359 24.4112 123.872 83.7592 107.668C143.107 91.464 159.21 123.67 172.275 126.404Z" fill="#F8F9FF"/>
<path d="M131.153 74.3481C131.153 74.3481 131.558 73.7404 132.166 73.9429C132.773 74.1455 132.773 76.171 131.659 76.4749C130.545 76.7787 129.938 75.1583 129.938 75.1583L131.153 74.3481Z" fill="#FFCCC8"/>
<path d="M116.267 74.3481C116.267 74.3481 115.862 73.7404 115.254 73.9429C114.647 74.1455 114.647 76.171 115.761 76.4749C116.875 76.7787 117.482 75.1583 117.482 75.1583L116.267 74.3481Z" fill="#FFCCC8"/>
<path d="M123.76 67.259C126.389 67.259 128.52 65.1279 128.52 62.499C128.52 59.8701 126.389 57.739 123.76 57.739C121.131 57.739 119 59.8701 119 62.499C119 65.1279 121.131 67.259 123.76 67.259Z" fill="#151619"/>
<path d="M242.559 148.786C243.167 148.685 243.673 148.482 244.078 148.28C246.509 146.457 245.901 143.216 245.901 143.216C245.901 143.216 243.369 139.874 242.154 140.076C240.939 140.279 241.242 140.785 241.242 140.785L243.065 143.115C243.268 143.419 243.369 143.824 243.167 144.229C242.559 145.343 241.141 147.571 239.318 145.343C238.002 143.722 239.419 142.001 240.331 141.393C241.344 140.684 240.533 139.57 240.533 139.57L235.47 141.494L183.92 123.467C183.92 123.467 168.019 111.314 159.917 104.022C151.815 96.8314 141.282 93.4893 141.282 93.4893C136.826 91.6663 131.357 90.7548 127.711 90.2484L126.901 82.3489C126.901 82.3489 131.661 80.222 131.054 71.7148C130.446 62.9038 116.166 63.2076 115.963 71.7148C115.761 80.222 119.913 82.2476 119.913 82.2476C119.711 85.8935 119.103 88.9318 118.799 90.3497C115.254 90.8561 110.292 91.6663 106.241 93.388C106.241 93.388 95.708 96.7301 87.6059 103.921C79.5038 111.111 65.7302 130.556 65.7302 130.556L15.5983 148.077L9.82554 145.951C9.82554 145.951 9.1166 147.065 10.0281 147.773C11.0409 148.482 12.4587 150.103 11.0409 151.723C10.9396 151.825 10.737 152.027 10.6357 152.23C9.01532 153.648 7.8 151.723 7.19235 150.71C6.98979 150.305 7.09107 149.9 7.29362 149.596L9.1166 147.267C9.1166 147.267 9.42043 146.761 8.20511 146.558C6.98979 146.356 4.45788 149.698 4.45788 149.698C4.45788 149.698 3.85022 152.939 6.28086 154.762C6.58469 155.065 7.19235 155.167 7.69873 155.268C4.05277 159.218 0.10299 163.573 0.00171332 164.383C-0.20084 166.003 17.6238 156.585 17.6238 156.585C17.6238 156.585 64.4136 147.976 68.4646 147.368C72.5157 146.862 103.101 110.808 103.101 110.808L123.458 115.061L143.814 110.808C143.814 110.808 176.425 139.57 180.476 140.076C184.528 140.583 231.317 149.293 231.317 149.293C231.317 149.293 249.142 158.61 248.939 157.091C249.446 156.281 246.002 152.432 242.559 148.786Z" fill="#FFCCC8"/>
<path d="M142.293 141.292C141.686 138.456 142.192 135.519 143.914 133.291C146.041 130.455 148.573 125.29 146.952 117.897C143.914 103.718 141.382 93.4894 141.382 93.4894C139.66 92.5779 137.432 91.9702 135.001 91.4638C135.001 91.4638 136.116 109.795 123.962 109.795C111.809 109.795 112.923 91.3625 112.923 91.3625C110.695 91.7677 108.568 92.3753 106.543 93.3881C106.543 93.3881 104.416 103.82 100.973 117.796C99.656 123.062 100.669 127.316 102.188 130.354C102.289 130.455 105.631 135.114 113.328 135.317C113.328 135.317 108.568 136.127 104.517 134C105.834 136.127 106.138 138.76 105.631 141.191C103.707 149.597 99.5547 157.699 99.5547 157.699L124.064 166.003L148.573 157.699C148.37 157.8 144.319 149.698 142.293 141.292Z" fill="#74CE63"/>
<path d="M63.3009 164.484L175.414 192.943L168.932 216.743C168.932 216.743 66.7443 214.312 31.8039 193.652C13.7767 183.018 14.6881 138.76 87.4047 152.736C99.7604 155.065 129.029 161.041 129.029 161.041C129.029 161.041 199.315 139.773 216.228 146.862C233.142 153.951 232.939 177.042 221.596 186.259C210.253 195.475 176.933 202.058 176.933 202.058" fill="#4F34D2"/>
<path d="M174.401 196.589C174.401 196.589 186.959 196.69 190.099 198.918C193.238 201.147 204.581 219.883 200.935 219.984C197.188 220.085 178.148 208.641 178.148 208.641L171.16 208.945L174.401 196.589Z" fill="#151619"/>
<path d="M69.2763 206.413C69.2763 206.413 64.3138 212.996 66.7444 214.312C69.1751 215.629 81.1257 208.337 81.1257 208.337L69.2763 206.413Z" fill="#151619"/>
<path d="M87.707 170.662C87.707 170.662 122.344 178.865 154.246 170.358L121.128 179.169L87.707 170.662Z" fill="#151619"/>
<path d="M195.662 158.779L121 178.693L121.261 179.671L195.923 159.758L195.662 158.779Z" fill="white"/>
<path d="M72.6749 166.301L72.4258 167.282L175.305 193.392L175.554 192.41L72.6749 166.301Z" fill="white"/>
<path d="M122.85 68.1707L116.369 74.6524C116.369 74.6524 114.343 69.0822 118.597 65.74C122.85 62.3979 132.978 64.626 131.358 74.2473C131.358 74.2473 124.673 71.8166 122.85 68.1707Z" fill="#151619"/>
<path d="M127.104 82.3491C127.104 82.3491 125.686 83.1593 123.66 82.9568L127.306 84.0708L127.104 82.3491Z" fill="#151619"/>
<path d="M123.662 79.716C122.345 79.716 121.535 79.3109 121.434 79.3109L121.636 78.9058C121.636 78.9058 123.459 79.716 125.89 78.9058L125.991 79.4121C125.181 79.6147 124.371 79.716 123.662 79.716Z" fill="#FF7268"/>
<path d="M123.963 76.7789H123.152L123.355 73.9431H123.659L123.456 76.475H123.963V76.7789Z" fill="#151619"/>
<path d="M126.697 74.7532C126.292 74.7532 125.988 74.6519 125.988 74.5506L126.191 74.1455C126.191 74.1455 126.798 74.3481 127.204 74.1455L127.406 74.5506C127.102 74.6519 126.9 74.7532 126.697 74.7532Z" fill="#151619"/>
<path d="M120.42 74.7532C120.015 74.7532 119.711 74.6519 119.711 74.5506L119.913 74.1455C119.913 74.1455 120.521 74.3481 120.926 74.1455L121.129 74.5506C120.926 74.6519 120.724 74.7532 120.42 74.7532Z" fill="#151619"/>
<path d="M128.117 253C179.296 253 220.785 249.509 220.785 245.202C220.785 240.895 179.296 237.403 128.117 237.403C76.9381 237.403 35.4492 240.895 35.4492 245.202C35.4492 249.509 76.9381 253 128.117 253Z" fill="#F4F5F7"/>
<path d="M143.914 103.82L145.737 112.124L155.561 120.632L143.914 103.82Z" fill="#151619"/>
<path d="M0.507812 164.586V164.079C0.609089 164.079 4.05249 163.978 18.0286 156.382H18.1299L68.8695 147.166C76.3639 143.216 101.784 112.529 102.088 112.226L102.493 112.529C101.48 113.846 76.6677 143.723 69.1733 147.571H69.072L18.3325 156.787C4.35632 164.383 0.811642 164.586 0.507812 164.586Z" fill="#151619"/>
<path d="M231.825 149.596L180.984 140.38L181.086 139.975L231.926 149.09L231.825 149.596Z" fill="#151619"/>
<path d="M51.9555 74.4494L44.4611 44.6741C44.056 43.0537 42.3343 42.0409 40.7138 42.446L27.5479 45.7881C25.9275 46.1932 24.9147 47.9149 25.3198 49.5354L32.8143 79.3107C33.2194 80.9311 34.9411 81.9439 36.5615 81.5387L49.7274 78.1966C51.4491 77.7915 52.4619 76.0698 51.9555 74.4494ZM36.4602 45.0792C36.6628 45.0792 36.764 45.1805 36.8653 45.2818C36.8653 45.4843 36.764 45.5856 36.6628 45.6869C36.4602 45.6869 36.3589 45.5856 36.2577 45.4843C36.1564 45.2818 36.2577 45.0792 36.4602 45.0792ZM32.8143 46.092L35.2449 45.4843C35.3462 45.4843 35.5487 45.4843 35.5487 45.6869C35.5487 45.7881 35.5487 45.9907 35.3462 45.9907L32.9155 46.5984C32.9155 46.5984 32.9155 46.5984 32.8143 46.5984C32.713 46.5984 32.6117 46.4971 32.6117 46.3958C32.6117 46.2945 32.713 46.092 32.8143 46.092ZM42.8406 78.2979C42.3342 78.3992 41.8279 78.0953 41.7266 77.589C41.6253 77.0826 41.9291 76.5762 42.4355 76.4749C42.9419 76.3736 43.4483 76.6775 43.5496 77.1839C43.5496 77.6902 43.2457 78.1966 42.8406 78.2979ZM50.0313 73.3354L34.0296 77.3864C33.7257 77.4877 33.5232 77.2851 33.4219 76.9813L26.5351 49.6366C26.4338 49.3328 26.6364 49.1303 26.9402 49.029L42.9419 44.9779C43.2457 44.8767 43.4483 45.0792 43.5496 45.383L50.4364 72.7277C50.4364 72.9302 50.3351 73.2341 50.0313 73.3354Z" fill="#B9C8FC"/>
<path d="M198.605 71.006L186.35 66.8537C185.034 66.4486 184.426 65.0307 184.831 63.7141L190.097 47.915C190.503 46.5984 191.92 45.9907 193.237 46.3958L201.339 49.1303C203.061 52.5737 203.972 54.4979 205.694 57.9413L201.846 69.4869C201.339 70.7022 199.921 71.4111 198.605 71.006Z" fill="#B9C8FC"/>
<path d="M201.238 49.1304L199.921 53.0802C199.415 54.498 200.225 56.1184 201.643 56.5236L205.593 57.8401L201.238 49.1304Z" fill="#4F34D2"/>
<path d="M126.193 23.0011L124.572 24.5203C122.952 24.2164 118.394 19.659 118.09 18.0386L119.61 16.4181C120.116 15.9117 120.217 15.1015 119.812 14.3926L117.685 10.9492C117.078 10.0377 115.761 9.93643 115.052 10.7466C114.343 11.4556 113.634 12.3671 113.027 13.3798C112.318 14.3926 112.216 15.8105 112.723 16.9245C113.533 18.8488 115.153 21.8871 117.888 24.6215C120.622 27.356 123.762 28.9764 125.585 29.7866C126.699 30.293 128.117 30.1917 129.13 29.4828C130.041 28.8751 130.953 28.1662 131.763 27.4573C132.573 26.7483 132.472 25.4317 131.56 24.8241L128.117 22.6973C127.61 22.4947 126.8 22.596 126.193 23.0011Z" fill="#B9C8FC"/>
</svg>
