<svg width="48" height="48" viewBox="0 0 48 48" fill="none" xmlns="http://www.w3.org/2000/svg">
<rect width="48" height="48" rx="14" fill="#E5E9FE"/>
<g clip-path="url(#clip0)">
<path fill-rule="evenodd" clip-rule="evenodd" d="M19.2346 20.8461C19.2346 20.8461 13.0885 22.5174 12.2921 23.7087C11.4957 24.9 12.1363 32.6345 16.326 36.2084C17.5206 37.2219 23.3032 34.0036 23.3032 34.0036L19.2346 20.8461Z" fill="#7083EF"/>
<path fill-rule="evenodd" clip-rule="evenodd" d="M20.273 20.8995C20.273 20.8995 19.1303 20.4016 18.282 21.4685C17.4336 22.5353 17.676 26.3225 19.5804 30.8566C21.4849 35.3906 23.926 34.3415 24.203 32.848L20.273 20.8995Z" fill="#4F34D2"/>
<path fill-rule="evenodd" clip-rule="evenodd" d="M19.6149 21.9663C21.1038 19.1925 23.2852 15.3341 24.1682 11.7425C24.3067 11.049 24.8261 10.4978 25.5013 10.3378C26.1765 10.1778 26.869 10.4267 27.3018 10.9957C27.4923 11.2446 27.6481 11.5469 27.7693 11.9203C28.306 13.5916 28.0117 15.992 27.7693 17.3078C27.7347 17.4856 27.8039 17.6812 27.9424 17.8056C28.0809 17.9301 28.2714 17.9657 28.4445 17.8945C30.2104 17.2011 34.1405 15.8853 35.4909 17.1477C37.7935 19.2992 37.1876 29.0429 35.4909 30.8921C33.7942 32.7413 24.1336 34.0748 21.9868 31.9589C19.9784 29.9142 18.6107 23.8154 19.6149 21.9663Z" fill="white"/>
<path d="M16.8115 16.3655C17.2705 16.3655 17.6425 15.9834 17.6425 15.512C17.6425 15.0407 17.2705 14.6586 16.8115 14.6586C16.3525 14.6586 15.9805 15.0407 15.9805 15.512C15.9805 15.9834 16.3525 16.3655 16.8115 16.3655Z" fill="#B9C8FC"/>
<path fill-rule="evenodd" clip-rule="evenodd" d="M29.294 39H31.3542C31.6659 39 31.9256 38.7333 31.9256 38.4132V36.2973C31.9256 35.9773 31.6659 35.7106 31.3542 35.7106H29.294C28.9824 35.7106 28.7227 35.9773 28.7227 36.2973V38.4132C28.7227 38.7333 28.965 39 29.294 39Z" fill="white"/>
</g>
<defs>
<clipPath id="clip0">
<rect x="12" y="10" width="25" height="29" fill="white"/>
</clipPath>
</defs>
</svg>
